<svg width="248" height="50" viewBox="0 0 248 50" fill="none" xmlns="http://www.w3.org/2000/svg">
<path fill-rule="evenodd" clip-rule="evenodd" d="M48.3115 34.2695L33.0197 49.5567H30.2519H27.4851L12.1934 34.2695L16.9032 29.5611L30.2519 42.9058L43.6016 29.5611L48.3115 34.2695Z" fill="#353849"/>
<path fill-rule="evenodd" clip-rule="evenodd" d="M47.666 25.4985L51.4976 21.6681L57.1545 16.0128L60.3027 22.2825L59.6643 22.9198L52.3759 30.207L47.666 25.4985Z" fill="#578FFC"/>
<path fill-rule="evenodd" clip-rule="evenodd" d="M43.3744 24.094C44.6504 22.8166 45.9263 21.5391 47.2041 20.2617L52.4482 15.0192L52.8611 14.6064L54.568 12.9C52.5399 12.3 50.5807 11.5413 48.7055 10.6356L46.6402 12.7003L41.7373 17.6017L30.2522 29.0834L24.1594 22.9924L20.0488 27.0081L26.1885 33.1459L30.2522 37.1158C34.6629 32.8067 39.0182 28.4537 43.3744 24.094Z" fill="#578FFC"/>
<path fill-rule="evenodd" clip-rule="evenodd" d="M12.8398 25.4985L9.00825 21.6681C17.6098 19.3961 25.0502 14.2672 30.2523 7.35838C32.3578 10.154 34.8302 12.6592 37.5971 14.8013L42.3538 10.0461C38.9361 7.54182 36.0278 4.38502 33.8105 0.759094H30.2513H26.6922C21.7119 8.9062 13.2364 14.6857 3.34936 16.0138L0.201172 22.2834L0.838647 22.9207L8.12802 30.2079L12.8379 25.4995L12.8398 25.4985Z" fill="#578FFC"/>
<path d="M91.8577 12.9229L84.942 30.5357L78.1276 12.9229H69.2422L80.1213 38.8127H89.1157L100.043 12.9229H91.8577ZM236.862 12.5379C233.347 12.5379 229.162 14.8606 227.668 18.4741V12.9229H220.496V38.8127H228.006V26.0126C228.006 21.2487 230.605 19.035 234.215 19.035C237.537 19.035 240.489 20.9602 240.489 25.146V38.8127H247.999V23.9909C247.999 16.0989 242.975 12.5379 236.862 12.5379ZM203.948 12.5379C196.054 12.5379 190.133 18.1196 190.133 25.8674C190.133 33.5664 194.619 39.1968 204.91 39.1968C209.58 39.1968 215.139 36.7193 216.963 29.9108L209.611 29.9022C208.607 32.5507 206.762 33.5549 204.018 33.5549C202.03 33.5549 198.094 32.5622 198.094 27.3779H216.44C217.088 19.0283 212.946 12.5369 203.947 12.5369L203.948 12.5379ZM203.996 18.2161C207.366 18.2161 209.105 20.3334 209.635 23.6058H198.091C198.621 20.2856 200.578 18.2161 203.996 18.2161ZM181.027 11.2203C181.027 8.67025 182.23 7.46734 184.444 7.46734C185.599 7.46734 187.934 7.80366 188.752 8.3817L188.753 2.75698C187.668 1.96587 185.84 1.54834 183.721 1.54834C177.271 1.54834 173.709 5.35007 173.709 11.1726V13.5H169.714V19.2748H173.709V38.8118H181.218V19.2748H189.45V13.5H181.026V11.2213L181.027 11.2203ZM159.255 38.8118H166.764V12.922H159.255V38.8118ZM146.794 12.5369C143.28 12.5369 139.375 14.8596 137.881 18.4731V12.922H130.709V38.8118H138.218V26.0116C138.218 21.2478 140.538 19.034 144.148 19.034C146.568 19.034 148.058 20.9602 148.058 25.145V27.8318H155.567V23.9899C155.567 16.0979 152.907 12.5369 146.794 12.5369ZM114.415 12.5369C106.521 12.5369 100.6 18.1187 100.6 25.8664C100.6 33.5654 105.086 39.1959 115.377 39.1959C120.047 39.1959 125.606 36.7184 127.43 29.9099L120.078 29.9013C119.074 32.5498 117.229 33.5539 114.485 33.5539C112.497 33.5539 108.561 32.5612 108.561 27.377H126.907C127.555 19.0273 123.413 12.536 114.414 12.536L114.415 12.5369ZM114.463 18.2152C117.833 18.2152 119.572 20.3324 120.102 23.6049H108.558C109.088 20.2847 111.045 18.2152 114.463 18.2152Z" fill="#353849"/>
<path d="M159.256 3.91876H166.766V10.4493H159.256V3.91876Z" fill="#5790FB"/>
<path d="M120.538 45.0947C120.397 44.7985 120.193 44.5692 119.925 44.4068C119.657 44.2434 119.347 44.1622 118.992 44.1622C118.638 44.1622 118.318 44.2434 118.034 44.4068C117.75 44.5692 117.526 44.8024 117.363 45.1052C117.2 45.4091 117.118 45.7597 117.118 46.1581C117.118 46.5566 117.199 46.9063 117.363 47.2072C117.525 47.5082 117.749 47.7404 118.034 47.9028C118.318 48.0652 118.637 48.1464 118.992 48.1464C119.488 48.1464 119.895 47.9983 120.217 47.7022C120.537 47.406 120.724 47.0056 120.778 46.5002H118.752V45.9613H121.485V46.4715C121.446 46.8891 121.315 47.2712 121.091 47.619C120.867 47.9659 120.574 48.2401 120.209 48.4417C119.845 48.6433 119.44 48.7436 118.992 48.7436C118.521 48.7436 118.091 48.6328 117.702 48.413C117.313 48.1923 117.006 47.8846 116.78 47.491C116.553 47.0974 116.441 46.6531 116.441 46.1581C116.441 45.6623 116.554 45.217 116.78 44.8205C117.006 44.425 117.313 44.1164 117.702 43.8956C118.091 43.6749 118.521 43.5641 118.992 43.5641C119.531 43.5641 120.009 43.6979 120.424 43.9644C120.84 44.232 121.142 44.6084 121.331 45.0938H120.537L120.538 45.0947ZM123.271 45.3565C123.388 45.1282 123.554 44.9514 123.77 44.8243C123.986 44.6982 124.25 44.6352 124.561 44.6352V45.3202H124.386C123.643 45.3202 123.271 45.7234 123.271 46.5289V48.6996H122.608V44.7078H123.271V45.3556V45.3565ZM127.317 48.7665C126.942 48.7665 126.604 48.6815 126.3 48.5114C125.996 48.3413 125.758 48.0996 125.586 47.7872C125.414 47.4738 125.328 47.1107 125.328 46.698C125.328 46.29 125.417 45.9288 125.594 45.6164C125.771 45.303 126.013 45.0622 126.319 44.895C126.625 44.7278 126.967 44.6438 127.346 44.6438C127.725 44.6438 128.068 44.7278 128.374 44.895C128.68 45.0622 128.921 45.3021 129.098 45.6126C129.276 45.9241 129.364 46.2852 129.364 46.698C129.364 47.1107 129.273 47.4738 129.091 47.7872C128.908 48.1006 128.662 48.3413 128.351 48.5114C128.04 48.6815 127.695 48.7665 127.317 48.7665ZM127.317 48.1837C127.555 48.1837 127.777 48.1273 127.987 48.0155C128.196 47.9037 128.364 47.7365 128.493 47.513C128.622 47.2894 128.686 47.0171 128.686 46.697C128.686 46.3769 128.623 46.1046 128.497 45.8811C128.371 45.6575 128.206 45.4912 128.002 45.3823C127.797 45.2734 127.577 45.2189 127.339 45.2189C127.096 45.2189 126.874 45.2734 126.673 45.3823C126.471 45.4922 126.309 45.6584 126.188 45.8811C126.067 46.1046 126.005 46.3769 126.005 46.697C126.005 47.0228 126.065 47.297 126.184 47.5197C126.303 47.7432 126.462 47.9095 126.661 48.0184C126.86 48.1273 127.079 48.1827 127.318 48.1827L127.317 48.1837ZM135.806 44.7087L134.56 48.7006H133.875L132.913 45.5314L131.951 48.7006H131.266L130.013 44.7087H130.69L131.609 48.0595L132.6 44.7087H133.278L134.247 48.0671L135.15 44.7087H135.806H135.806ZM142.213 43.6233L140.558 46.7849V48.7006H139.895V46.7849L138.234 43.6233H138.97L140.223 46.1945L141.476 43.6233H142.212H142.213ZM144.903 48.7665C144.529 48.7665 144.19 48.6815 143.886 48.5114C143.583 48.3413 143.344 48.0996 143.172 47.7872C142.999 47.4738 142.913 47.1107 142.913 46.698C142.913 46.29 143.002 45.9288 143.179 45.6164C143.356 45.303 143.599 45.0622 143.904 44.895C144.21 44.7278 144.552 44.6438 144.932 44.6438C145.31 44.6438 145.653 44.7278 145.959 44.895C146.265 45.0622 146.507 45.3021 146.685 45.6126C146.861 45.9241 146.95 46.2852 146.95 46.698C146.95 47.1107 146.86 47.4738 146.677 47.7872C146.494 48.1006 146.248 48.3413 145.937 48.5114C145.626 48.6815 145.282 48.7665 144.902 48.7665H144.903ZM144.903 48.1837C145.141 48.1837 145.365 48.1273 145.574 48.0155C145.782 47.9037 145.952 47.7365 146.081 47.513C146.209 47.2894 146.274 47.0171 146.274 46.697C146.274 46.3769 146.211 46.1046 146.084 45.8811C145.958 45.6575 145.793 45.4912 145.588 45.3823C145.385 45.2734 145.164 45.2189 144.925 45.2189C144.682 45.2189 144.46 45.2734 144.258 45.3823C144.056 45.4922 143.895 45.6584 143.773 45.8811C143.652 46.1046 143.591 46.3769 143.591 46.697C143.591 47.0228 143.65 47.297 143.77 47.5197C143.888 47.7432 144.048 47.9095 144.247 48.0184C144.446 48.1273 144.664 48.1827 144.903 48.1827V48.1837ZM151.615 44.7087V48.7006H150.952V48.1111C150.826 48.3146 150.65 48.4742 150.424 48.5879C150.199 48.7025 149.949 48.7589 149.678 48.7589C149.366 48.7589 149.087 48.6949 148.84 48.5659C148.592 48.4369 148.396 48.2439 148.254 47.9869C148.111 47.7289 148.039 47.4165 148.039 47.0467V44.7087H148.695V46.9598C148.695 47.3534 148.794 47.6553 148.994 47.8674C149.192 48.0786 149.465 48.1837 149.81 48.1837C150.164 48.1837 150.444 48.0738 150.648 47.856C150.852 47.6372 150.954 47.319 150.954 46.9015V44.7087H151.617H151.615ZM153.649 45.3565C153.766 45.1282 153.932 44.9514 154.148 44.8243C154.364 44.6982 154.628 44.6352 154.939 44.6352V45.3202H154.764C154.021 45.3202 153.649 45.7234 153.649 46.5289V48.6996H152.986V44.7078H153.649V45.3556V45.3565ZM160.441 46.0855C160.626 46.1142 160.795 46.1897 160.948 46.311C161.101 46.4324 161.222 46.5833 161.312 46.7629C161.402 46.9426 161.447 47.1346 161.447 47.3381C161.447 47.5951 161.381 47.8273 161.25 48.0337C161.119 48.2401 160.928 48.4025 160.678 48.5219C160.428 48.6404 160.133 48.7006 159.793 48.7006H157.898V43.6233H159.72C160.065 43.6233 160.359 43.6797 160.602 43.7944C160.845 43.9081 161.026 44.0628 161.149 44.2568C161.27 44.4517 161.331 44.6696 161.331 44.9132C161.331 45.2142 161.25 45.4635 161.087 45.6594C160.924 45.8562 160.709 45.9986 160.441 46.0855ZM158.562 45.8161H159.677C159.987 45.8161 160.228 45.7435 160.398 45.5983C160.569 45.4521 160.654 45.2505 160.654 44.9935C160.654 44.7364 160.569 44.5348 160.398 44.3887C160.228 44.2425 159.983 44.1699 159.663 44.1699H158.562V45.8161H158.562ZM159.734 48.155C160.065 48.155 160.322 48.0776 160.507 47.9219C160.692 47.7662 160.785 47.5502 160.785 47.2732C160.785 46.9923 160.687 46.7696 160.493 46.6072C160.299 46.4448 160.039 46.3626 159.713 46.3626H158.562V48.155H159.734ZM166.155 44.7097V48.7016H165.492V48.112C165.365 48.3155 165.189 48.4751 164.963 48.5888C164.737 48.7035 164.488 48.7598 164.217 48.7598C163.906 48.7598 163.626 48.6958 163.378 48.5668C163.131 48.4378 162.935 48.2448 162.792 47.9878C162.648 47.7299 162.577 47.4174 162.577 47.0477V44.7097H163.232V46.9607C163.232 47.3544 163.332 47.6563 163.53 47.8684C163.73 48.0796 164.002 48.1847 164.347 48.1847C164.701 48.1847 164.98 48.0748 165.184 47.8569C165.388 47.6381 165.49 47.32 165.49 46.9024V44.7097H166.153H166.155ZM168.939 48.7675C168.633 48.7675 168.359 48.7149 168.116 48.6108C167.873 48.5066 167.681 48.3605 167.54 48.1741C167.399 47.9869 167.322 47.7719 167.307 47.5292H167.993C168.012 47.7279 168.105 47.8904 168.274 48.0174C168.441 48.1436 168.661 48.2066 168.932 48.2066C169.185 48.2066 169.384 48.1512 169.53 48.0394C169.676 47.9276 169.748 47.7872 169.748 47.6171C169.748 47.4423 169.671 47.3123 169.515 47.2273C169.359 47.1423 169.119 47.0591 168.794 46.976C168.497 46.8986 168.256 46.8193 168.068 46.7391C167.881 46.6598 167.721 46.5403 167.586 46.3827C167.454 46.225 167.387 46.0167 167.387 45.7597C167.387 45.5562 167.447 45.3689 167.569 45.1989C167.692 45.0288 167.863 44.8941 168.087 44.7947C168.31 44.6954 168.565 44.6457 168.852 44.6457C169.294 44.6457 169.651 44.7575 169.923 44.981C170.196 45.2046 170.341 45.5104 170.36 45.8992H169.697C169.682 45.69 169.598 45.5228 169.445 45.3967C169.292 45.2705 169.087 45.2075 168.83 45.2075C168.592 45.2075 168.403 45.2591 168.261 45.3603C168.12 45.4626 168.05 45.5954 168.05 45.7607C168.05 45.8916 168.092 46.0005 168.178 46.0846C168.263 46.1696 168.369 46.2375 168.498 46.289C168.626 46.3397 168.805 46.397 169.033 46.4601C169.32 46.5375 169.553 46.6139 169.733 46.6894C169.913 46.7649 170.067 46.8776 170.196 47.0276C170.324 47.1786 170.391 47.3754 170.396 47.6181C170.396 47.8369 170.335 48.0337 170.214 48.2076C170.092 48.3824 169.921 48.52 169.7 48.6194C169.479 48.7187 169.225 48.7694 168.938 48.7694L168.939 48.7675ZM171.921 44.0609C171.795 44.0609 171.688 44.017 171.601 43.93C171.514 43.8421 171.47 43.7351 171.47 43.61C171.47 43.4838 171.514 43.3768 171.601 43.2899C171.688 43.202 171.795 43.159 171.921 43.159C172.042 43.159 172.145 43.2029 172.23 43.2899C172.315 43.3768 172.358 43.4838 172.358 43.61C172.358 43.7361 172.315 43.8431 172.23 43.93C172.145 44.017 172.042 44.0609 171.921 44.0609ZM172.241 44.7097V48.7016H171.578V44.7097H172.241ZM175.565 44.6371C176.051 44.6371 176.444 44.7842 176.745 45.0775C177.046 45.3709 177.197 45.7951 177.197 46.3483V48.7016H176.541V46.4438C176.541 46.0454 176.441 45.7406 176.242 45.5295C176.043 45.3183 175.77 45.2132 175.425 45.2132C175.076 45.2132 174.798 45.3231 174.591 45.5409C174.385 45.7588 174.281 46.0779 174.281 46.4945V48.7016H173.618V44.7097H174.281V45.2782C174.412 45.0737 174.591 44.9161 174.817 44.8043C175.042 44.6925 175.292 44.6371 175.563 44.6371H175.565ZM182.175 46.5527C182.175 46.6789 182.168 46.8126 182.154 46.9531H178.962C178.986 47.3467 179.121 47.6534 179.366 47.8751C179.612 48.0958 179.909 48.2066 180.259 48.2066C180.545 48.2066 180.784 48.1397 180.976 48.006C181.168 47.8732 181.303 47.6945 181.381 47.4709H182.095C181.988 47.855 181.775 48.1665 181.454 48.4073C181.134 48.648 180.735 48.7684 180.26 48.7684C179.88 48.7684 179.541 48.6834 179.243 48.5133C178.943 48.3433 178.709 48.1015 178.539 47.7891C178.369 47.4757 178.284 47.1126 178.284 46.6999C178.284 46.2871 178.366 45.925 178.532 45.6145C178.697 45.304 178.928 45.0642 179.227 44.897C179.526 44.7298 179.87 44.6457 180.259 44.6457C180.637 44.6457 180.972 44.7288 181.264 44.8931C181.555 45.0584 181.78 45.2849 181.938 45.5744C182.095 45.8639 182.175 46.1897 182.175 46.5547V46.5527ZM181.49 46.4142C181.49 46.162 181.434 45.9441 181.322 45.7626C181.21 45.5801 181.059 45.4425 180.866 45.347C180.674 45.2524 180.462 45.2046 180.229 45.2046C179.893 45.2046 179.609 45.3116 179.373 45.5256C179.137 45.7397 179.003 46.0349 178.968 46.4142H181.49ZM184.711 48.7675C184.405 48.7675 184.131 48.7149 183.888 48.6108C183.646 48.5066 183.454 48.3605 183.313 48.1741C183.173 47.9869 183.094 47.7719 183.08 47.5292H183.765C183.784 47.7279 183.878 47.8904 184.046 48.0174C184.213 48.1436 184.433 48.2066 184.705 48.2066C184.958 48.2066 185.157 48.1512 185.302 48.0394C185.448 47.9276 185.521 47.7872 185.521 47.6171C185.521 47.4423 185.443 47.3123 185.288 47.2273C185.133 47.1423 184.892 47.0591 184.567 46.976C184.271 46.8986 184.029 46.8193 183.842 46.7391C183.654 46.6598 183.495 46.5403 183.361 46.3827C183.227 46.225 183.16 46.0167 183.16 45.7597C183.16 45.5562 183.22 45.3689 183.343 45.1989C183.465 45.0288 183.636 44.8941 183.861 44.7947C184.083 44.6954 184.339 44.6457 184.625 44.6457C185.068 44.6457 185.424 44.7575 185.697 44.981C185.969 45.2046 186.114 45.5104 186.133 45.8992H185.47C185.456 45.69 185.372 45.5228 185.219 45.3967C185.066 45.2705 184.86 45.2075 184.603 45.2075C184.365 45.2075 184.176 45.2591 184.035 45.3603C183.893 45.4626 183.823 45.5954 183.823 45.7607C183.823 45.8916 183.865 46.0005 183.951 46.0846C184.036 46.1696 184.142 46.2375 184.271 46.289C184.399 46.3397 184.578 46.397 184.806 46.4601C185.093 46.5375 185.326 46.6139 185.506 46.6894C185.685 46.7649 185.839 46.8776 185.968 47.0276C186.097 47.1786 186.163 47.3754 186.169 47.6181C186.169 47.8369 186.108 48.0337 185.986 48.2076C185.865 48.3824 185.694 48.52 185.472 48.6194C185.251 48.7187 184.997 48.7694 184.71 48.7694L184.711 48.7675ZM188.765 48.7675C188.459 48.7675 188.184 48.7149 187.942 48.6108C187.699 48.5066 187.507 48.3605 187.365 48.1741C187.225 47.9869 187.147 47.7719 187.132 47.5292H187.817C187.837 47.7279 187.931 47.8904 188.098 48.0174C188.267 48.1436 188.486 48.2066 188.758 48.2066C189.011 48.2066 189.21 48.1512 189.355 48.0394C189.501 47.9276 189.574 47.7872 189.574 47.6171C189.574 47.4423 189.497 47.3123 189.341 47.2273C189.186 47.1423 188.945 47.0591 188.62 46.976C188.324 46.8986 188.082 46.8193 187.895 46.7391C187.708 46.6598 187.548 46.5403 187.413 46.3827C187.279 46.225 187.212 46.0167 187.212 45.7597C187.212 45.5562 187.274 45.3689 187.395 45.1989C187.517 45.0288 187.689 44.8941 187.913 44.7947C188.137 44.6954 188.391 44.6457 188.679 44.6457C189.12 44.6457 189.478 44.7575 189.749 44.981C190.021 45.2046 190.167 45.5104 190.186 45.8992H189.522C189.508 45.69 189.424 45.5228 189.271 45.3967C189.118 45.2705 188.913 45.2075 188.656 45.2075C188.418 45.2075 188.228 45.2591 188.087 45.3603C187.946 45.4626 187.876 45.5954 187.876 45.7607C187.876 45.8916 187.918 46.0005 188.003 46.0846C188.088 46.1696 188.195 46.2375 188.323 46.289C188.452 46.3397 188.631 46.397 188.859 46.4601C189.146 46.5375 189.379 46.6139 189.559 46.6894C189.738 46.7649 189.892 46.8776 190.021 47.0276C190.149 47.1786 190.216 47.3754 190.221 47.6181C190.221 47.8369 190.161 48.0337 190.039 48.2076C189.917 48.3824 189.746 48.52 189.524 48.6194C189.304 48.7187 189.049 48.7694 188.764 48.7694L188.765 48.7675ZM199.733 43.6243L198.261 48.7016H197.517L196.337 44.6151L195.113 48.7016L194.377 48.7092L192.955 43.6243H193.663L194.77 47.9295L195.995 43.6243H196.738L197.904 47.9143L199.02 43.6243H199.734H199.733ZM201.052 44.0609C200.926 44.0609 200.819 44.017 200.732 43.93C200.645 43.8421 200.601 43.7351 200.601 43.61C200.601 43.4838 200.645 43.3768 200.732 43.2899C200.819 43.202 200.926 43.159 201.052 43.159C201.174 43.159 201.277 43.2029 201.362 43.2899C201.447 43.3768 201.489 43.4838 201.489 43.61C201.489 43.7361 201.447 43.8431 201.362 43.93C201.277 44.017 201.174 44.0609 201.052 44.0609ZM201.373 44.7097V48.7016H200.709V44.7097H201.373ZM203.56 45.2562V47.6095C203.56 47.8044 203.601 47.941 203.684 48.0213C203.767 48.1006 203.91 48.1417 204.114 48.1417H204.602V48.7025H204.005C203.636 48.7025 203.359 48.6175 203.174 48.4474C202.99 48.2773 202.897 47.9983 202.897 47.6095V45.2562H202.38V44.7097H202.897V43.7046H203.56V44.7097H204.602V45.2562H203.56ZM207.635 44.6371C207.936 44.6371 208.208 44.7011 208.451 44.8301C208.694 44.9591 208.885 45.1521 209.022 45.4091C209.161 45.6661 209.23 45.9795 209.23 46.3483V48.7016H208.573V46.4438C208.573 46.0454 208.474 45.7406 208.275 45.5295C208.076 45.3183 207.804 45.2132 207.459 45.2132C207.109 45.2132 206.831 45.3231 206.624 45.5409C206.417 45.7588 206.315 46.0779 206.315 46.4945V48.7016H205.651V43.3109H206.315V45.2782C206.446 45.0737 206.627 44.9161 206.859 44.8043C207.089 44.6925 207.348 44.6371 207.635 44.6371ZM212.306 48.7675C211.932 48.7675 211.593 48.6824 211.289 48.5124C210.985 48.3423 210.747 48.1006 210.575 47.7881C210.403 47.4748 210.317 47.1117 210.317 46.6989C210.317 46.291 210.406 45.9298 210.583 45.6174C210.761 45.304 211.003 45.0632 211.308 44.896C211.614 44.7288 211.956 44.6447 212.336 44.6447C212.714 44.6447 213.057 44.7288 213.363 44.896C213.669 45.0632 213.911 45.303 214.088 45.6135C214.265 45.925 214.353 46.2862 214.353 46.6989C214.353 47.1117 214.263 47.4748 214.08 47.7881C213.897 48.1015 213.652 48.3423 213.34 48.5124C213.03 48.6824 212.685 48.7675 212.306 48.7675ZM212.306 48.1847C212.544 48.1847 212.767 48.1283 212.976 48.0165C213.185 47.9047 213.354 47.7375 213.483 47.5139C213.612 47.2904 213.676 47.018 213.676 46.698C213.676 46.3779 213.613 46.1056 213.487 45.882C213.36 45.6584 213.195 45.4922 212.991 45.3833C212.787 45.2744 212.566 45.2199 212.328 45.2199C212.085 45.2199 211.864 45.2744 211.662 45.3833C211.46 45.4932 211.299 45.6594 211.177 45.882C211.056 46.1056 210.995 46.3779 210.995 46.698C210.995 47.0238 211.054 47.298 211.174 47.5206C211.292 47.7442 211.452 47.9104 211.651 48.0194C211.849 48.1283 212.068 48.1837 212.307 48.1837L212.306 48.1847ZM219.017 44.7097V48.7016H218.354V48.112C218.228 48.3155 218.051 48.4751 217.826 48.5888C217.6 48.7035 217.351 48.7598 217.079 48.7598C216.769 48.7598 216.488 48.6958 216.241 48.5668C215.993 48.4378 215.798 48.2448 215.654 47.9878C215.511 47.7299 215.439 47.4174 215.439 47.0477V44.7097H216.095V46.9607C216.095 47.3544 216.194 47.6563 216.393 47.8684C216.593 48.0796 216.864 48.1847 217.209 48.1847C217.564 48.1847 217.843 48.0748 218.046 47.8569C218.251 47.6381 218.352 47.32 218.352 46.9024V44.7097H219.015H219.017ZM221.197 45.2562V47.6095C221.197 47.8044 221.238 47.941 221.322 48.0213C221.405 48.1006 221.548 48.1417 221.752 48.1417H222.24V48.7025H221.643C221.274 48.7025 220.997 48.6175 220.812 48.4474C220.628 48.2773 220.535 47.9983 220.535 47.6095V45.2562H220.018V44.7097H220.535V43.7046H221.198V44.7097H222.24V45.2562H221.198H221.197ZM226.147 48.1627H227.925V48.7016H225.484V43.6243H226.147V48.1627ZM229.223 44.0609C229.097 44.0609 228.989 44.017 228.903 43.93C228.816 43.8421 228.772 43.7351 228.772 43.61C228.772 43.4838 228.816 43.3768 228.903 43.2899C228.989 43.202 229.097 43.159 229.223 43.159C229.344 43.159 229.447 43.2029 229.532 43.2899C229.617 43.3768 229.659 43.4838 229.659 43.61C229.659 43.7361 229.617 43.8431 229.532 43.93C229.447 44.017 229.344 44.0609 229.223 44.0609ZM229.543 44.7097V48.7016H228.88V44.7097H229.543ZM235.724 44.6371C236.034 44.6371 236.311 44.7011 236.554 44.8301C236.798 44.9591 236.989 45.1521 237.13 45.4091C237.272 45.6661 237.342 45.9795 237.342 46.3483V48.7016H236.686V46.4438C236.686 46.0454 236.588 45.7406 236.391 45.5295C236.194 45.3183 235.928 45.2132 235.593 45.2132C235.248 45.2132 234.973 45.324 234.77 45.5447C234.566 45.7655 234.464 46.0846 234.464 46.5031V48.7025H233.808V46.4448C233.808 46.0464 233.71 45.7416 233.513 45.5304C233.316 45.3193 233.05 45.2142 232.715 45.2142C232.37 45.2142 232.096 45.325 231.892 45.5457C231.688 45.7664 231.586 46.0855 231.586 46.504V48.7035H230.923V44.7116H231.586V45.2868C231.717 45.0785 231.894 44.918 232.115 44.8062C232.336 44.6944 232.579 44.639 232.847 44.639C233.182 44.639 233.478 44.7145 233.736 44.8645C233.993 45.0145 234.185 45.2361 234.311 45.5276C234.423 45.2457 234.607 45.0269 234.865 44.8712C235.122 44.7164 235.409 44.639 235.725 44.639L235.724 44.6371ZM239.018 44.0609C238.892 44.0609 238.785 44.017 238.698 43.93C238.611 43.8421 238.567 43.7351 238.567 43.61C238.567 43.4838 238.611 43.3768 238.698 43.2899C238.785 43.202 238.892 43.159 239.018 43.159C239.139 43.159 239.243 43.2029 239.328 43.2899C239.413 43.3768 239.455 43.4838 239.455 43.61C239.455 43.7361 239.413 43.8431 239.328 43.93C239.243 44.017 239.139 44.0609 239.018 44.0609ZM239.338 44.7097V48.7016H238.675V44.7097H239.338ZM241.526 45.2562V47.6095C241.526 47.8044 241.567 47.941 241.649 48.0213C241.732 48.1006 241.876 48.1417 242.079 48.1417H242.568V48.7025H241.97C241.601 48.7025 241.324 48.6175 241.14 48.4474C240.955 48.2773 240.863 47.9983 240.863 47.6095V45.2562H240.345V44.7097H240.863V43.7046H241.526V44.7097H242.568V45.2562H241.526ZM245.031 48.7675C244.726 48.7675 244.451 48.7149 244.209 48.6108C243.966 48.5066 243.774 48.3605 243.633 48.1741C243.493 47.9869 243.415 47.7719 243.4 47.5292H244.085C244.104 47.7279 244.199 47.8904 244.366 48.0174C244.534 48.1436 244.753 48.2066 245.026 48.2066C245.278 48.2066 245.478 48.1512 245.623 48.0394C245.769 47.9276 245.842 47.7872 245.842 47.6171C245.842 47.4423 245.765 47.3123 245.609 47.2273C245.454 47.1423 245.213 47.0591 244.888 46.976C244.592 46.8986 244.35 46.8193 244.163 46.7391C243.975 46.6598 243.816 46.5403 243.682 46.3827C243.548 46.225 243.481 46.0167 243.481 45.7597C243.481 45.5562 243.541 45.3689 243.664 45.1989C243.786 45.0288 243.957 44.8941 244.182 44.7947C244.405 44.6954 244.66 44.6457 244.946 44.6457C245.389 44.6457 245.745 44.7575 246.018 44.981C246.29 45.2046 246.435 45.5104 246.455 45.8992H245.791C245.777 45.69 245.693 45.5228 245.54 45.3967C245.387 45.2705 245.182 45.2075 244.924 45.2075C244.686 45.2075 244.497 45.2591 244.356 45.3603C244.215 45.4626 244.145 45.5954 244.145 45.7607C244.145 45.8916 244.187 46.0005 244.272 46.0846C244.357 46.1696 244.463 46.2375 244.592 46.289C244.721 46.3397 244.9 46.397 245.127 46.4601C245.414 46.5375 245.647 46.6139 245.827 46.6894C246.006 46.7649 246.161 46.8776 246.289 47.0276C246.418 47.1786 246.485 47.3754 246.49 47.6181C246.49 47.8369 246.43 48.0337 246.307 48.2076C246.186 48.3824 246.015 48.52 245.793 48.6194C245.572 48.7187 245.318 48.7694 245.031 48.7694V48.7675Z" fill="#353849"/>
<path d="M248.001 47.8302H247.131V48.6997H248.001V47.8302Z" fill="#5790FB"/>
</svg>
