<svg width="1125" height="1600" viewBox="0 0 1125 1600" fill="none" xmlns="http://www.w3.org/2000/svg">
<path fill-rule="evenodd" clip-rule="evenodd" d="M655.451 998.951C659.946 978.944 656.382 959.229 646.317 943.53C636.252 927.832 620.617 915.643 600.516 911.176C580.889 906.691 561.096 910.718 545.302 920.269C529.525 930.291 517.272 945.855 512.777 965.863C487.747 1074.02 483.12 1181.92 496.408 1286.32C509.815 1394.03 542.541 1497.74 591.57 1592.81C594.637 1598.84 601.835 1600.94 607.895 1597.89C613.956 1594.83 616.069 1587.67 613.002 1581.64C565.024 1489.36 533.349 1388.45 520.028 1283.1C507.335 1181.98 512.046 1076.45 536.231 971.153C539.087 958.292 547.244 947.602 557.926 941.071C568.608 934.541 581.797 931.7 594.736 935.01C607.657 937.848 618.396 945.962 624.953 956.591C631.494 966.748 633.87 979.891 631.014 992.751L631.031 993.223C608.097 1093.75 604.619 1194.04 619.021 1289.9C634.033 1389.52 667.873 1484.68 717.524 1570.76C721.048 1576.3 728.246 1578.4 734.306 1575.34C740.35 1571.82 741.989 1564.67 738.922 1558.64C690.796 1475.34 658.007 1382.98 643.572 1286.18C629.747 1193.13 632.871 1096.16 655.451 998.951ZM37.8968 857.433C72.3233 707.353 165.215 585.387 286.37 509.642C408 433.88 558.368 404.321 709.154 438.532C743.616 446.257 776.301 457.355 807.65 470.863C839.964 484.808 870.01 501.671 898.229 520.49C903.581 524.075 905.277 531.573 901.69 537.373C898.086 542.702 890.551 544.393 884.725 540.824C857.472 522.443 828.408 506.489 798.025 493.419C768.115 480.331 736.413 470.143 703.373 462.366C559.276 429.33 415.038 457.72 298.994 530.445C182.951 603.169 94.1384 719.79 61.3684 863.196C58.1068 877.961 54.8452 892.726 52.0577 907.474C49.2531 921.75 46.4656 936.498 44.1694 951.701C42.9871 958.359 36.9778 962.829 30.2888 961.655C23.5998 960.48 19.11 954.501 20.2924 947.844C22.6057 933.113 25.3932 918.365 28.1464 902.673C31.3908 887.436 34.6352 872.199 37.8968 857.433ZM97.2525 870.869C88.2617 910.884 80.6933 950.847 75.0214 990.741C69.3665 1031.11 65.6252 1071.88 63.7462 1111.63C63.512 1118.26 68.459 1123.75 75.6049 1124.43C82.2597 1124.66 87.7776 1119.74 88.4688 1112.62C90.365 1073.34 93.6664 1033.53 99.3383 993.637C104.57 954.704 111.682 915.23 121.164 875.67C137.169 806.58 167.215 745.011 208.034 692.501C250.207 638.052 304.136 593.57 364.708 562.076C370.769 559.021 372.882 551.857 369.814 545.826C366.747 539.796 359.55 537.695 353.489 540.75C289.649 573.78 233.419 620.235 188.978 677.602C145.908 733.501 114.103 798.913 97.2525 870.869ZM156.625 884.777C142.242 946.249 133.075 1007.53 128.174 1068.66C122.834 1130.75 122.708 1192.65 126.359 1253.94C126.599 1260.54 132.477 1265.53 139.114 1265.28C145.752 1265.04 150.761 1259.19 150.521 1252.59C146.922 1192.71 147.082 1131.76 152.457 1070.61C157.409 1010.9 166.611 950.561 180.554 890.05C186.3 865.272 193.977 841.37 204.076 818.796C214.158 795.751 226.171 773.581 240.149 753.229C243.753 747.901 242.53 740.386 236.687 736.346C231.334 732.76 223.783 733.979 219.722 739.797C205.321 761.581 192.395 784.73 181.89 809.208C171.368 833.214 162.777 858.095 156.625 884.777ZM215.981 898.212C237.31 805.777 291.496 729.158 363.201 677.415C435.837 625.167 526.501 598.722 620.364 608.069C627.036 608.772 632 614.734 631.292 621.374C630.583 628.015 624.591 632.957 617.919 632.254C530.254 623.627 445.228 648.449 377.213 697.223C310.129 745.49 259.565 817.253 239.436 903.503C221.825 980.684 211.818 1058.06 209.362 1134.22C206.992 1212.74 212.191 1290.51 224.415 1365.66C225.604 1372.23 221.085 1378.54 214.482 1379.72C207.879 1380.91 201.544 1376.41 200.356 1369.84C187.571 1292.35 182.338 1213.63 184.657 1133.7C187.992 1055.62 197.948 976.826 215.981 898.212ZM275.337 911.648C295.043 826.831 347.133 757.847 415.845 715.191C484.557 672.535 569.4 655.751 654.598 674.863C739.339 694.463 808.617 745.809 851.453 814.18L851.944 814.635C894.781 883.005 911.632 967.911 892.383 1052.24L892.4 1052.71C886.636 1077.02 883.244 1101.24 880.799 1125.42C878.371 1150.08 878.314 1174.65 879.188 1198.71C879.428 1205.32 874.419 1211.17 867.781 1211.41C861.144 1211.65 855.266 1206.67 855.026 1200.06C853.626 1174.6 854.123 1149.07 856.516 1123.47C858.927 1098.34 862.742 1072.69 868.471 1047.44L868.454 1046.97C886.504 968.824 870.841 890.489 831.055 827.678L830.564 827.223C790.778 764.411 726.852 716.651 648.817 698.696C570.308 680.759 491.594 696.375 427.978 735.539C364.378 775.175 316.367 838.814 298.317 916.956C295.832 926.968 294.262 936.002 292.182 944.11C290.577 952.2 288.55 961.723 287.013 971.701C285.831 978.359 279.347 982.846 273.132 981.655C266.443 980.48 261.936 974.029 263.119 967.372C264.707 958.809 266.26 949.303 268.745 939.291C271.721 929.734 273.749 920.21 275.337 911.648ZM280.193 1019.2C270.049 1092.8 267.473 1165.65 271.5 1237.32C275.597 1310.88 287.227 1382.75 304.97 1452.98C306.632 1459.53 302.605 1466.29 296.002 1467.48C289.415 1469.13 282.624 1465.13 281.435 1458.56C263.167 1386.93 251.468 1313.18 247.321 1238.2C243.224 1164.64 245.749 1090.37 256.316 1015.34C257.024 1008.7 263.507 1004.21 270.179 1004.91C276.411 1006.58 281.375 1012.54 280.193 1019.2ZM334.693 925.084C350.258 856.954 392.397 801.561 447.633 766.954L448.09 766.465C503.801 731.84 572.154 718.49 641.077 733.941C657.826 737.585 674.168 743.133 689.14 750.149C704.586 757.148 719.609 765.579 732.787 775.495C738.157 779.552 739.379 787.067 735.775 792.396C731.696 797.741 724.145 798.96 718.793 795.375C706.597 786.368 693.03 778.829 679.041 772.722C665.526 766.599 650.623 761.47 635.314 758.247C573.079 743.97 510.856 756.153 460.732 787.739L460.275 788.229C410.133 819.344 372.564 869.846 358.198 931.79C335.213 1030.9 326.942 1129.95 331.878 1226.63C336.934 1326.61 355.671 1424.2 387.037 1516.61C389.174 1523.15 385.621 1529.89 379.526 1532.01C372.957 1534.13 366.182 1530.6 364.063 1524.54C332.137 1429.78 312.857 1330.32 307.716 1227.98C303.117 1127.51 311.319 1026.57 334.693 925.084ZM394.048 938.52C405.912 886.116 438.083 843.842 480.336 817.738C522.572 791.163 574.907 781.23 627.557 793.019C680.207 804.809 722.671 836.812 748.885 878.855C775.573 920.881 785.535 972.964 773.671 1025.37L773.688 1025.84C771.204 1035.85 769.21 1046.32 767.217 1056.79C765.24 1067.72 763.721 1078.17 762.184 1088.15C761.476 1094.79 754.993 1099.28 748.795 1098.56C742.123 1097.86 737.616 1091.41 738.342 1085.24C739.844 1074.32 741.346 1063.4 743.322 1052.46C745.299 1041.52 747.292 1031.05 750.217 1020.08L750.2 1019.61C760.407 973.877 751.633 928.365 728.47 891.881C705.289 854.925 668.194 826.979 622.251 816.836C576.29 806.221 530.575 815.441 493.434 838.524C456.294 861.607 428.201 898.536 417.52 944.282C393.301 1048.63 386.624 1152.35 394.576 1253.64C403.122 1358.22 427.702 1459.86 466.775 1555.3C469.368 1561.34 466.306 1568.54 460.228 1571.12C454.151 1573.71 446.919 1570.66 444.326 1564.62C404.237 1467.32 379.079 1362.88 370.447 1255.94C362.393 1151.81 369.441 1045.25 394.048 938.52ZM453.421 952.427C461.618 916.694 483.364 888.028 512.125 869.501L512.582 869.012C541.834 850.94 577.661 843.969 613.562 852.115C649.464 860.26 678.259 881.893 696.864 910.511L697.355 910.965C715.503 940.072 722.495 975.727 714.298 1011.46L714.316 1011.93C693.392 1102.46 690.994 1193.27 704.104 1279.72C717.825 1369.94 748.952 1455.75 794.484 1533C798.009 1538.54 795.912 1546.17 790.343 1549.68C784.774 1553.19 777.102 1551.11 773.578 1545.57C726.52 1465.54 694.342 1376.94 680.044 1283.91C666.34 1194.16 669.11 1100.51 690.387 1006.66L690.37 1006.19C696.91 977.128 691.089 947.574 676.466 924.009L675.975 923.554C660.877 900.006 637.451 882.43 607.782 875.948C578.095 868.995 548.889 875.253 525.206 889.815L524.749 890.304C501.084 905.338 483.416 928.659 476.893 958.189C468.713 994.395 462.43 1030.53 458.517 1066.58C454.165 1103.59 452.166 1140.05 452.52 1175.94C452.76 1182.55 447.259 1187.94 440.622 1188.19C433.984 1188.43 428.563 1182.95 428.323 1176.35C428.391 1139.02 430.356 1101.62 434.217 1064.16C438.553 1026.67 444.802 989.593 453.421 952.427ZM454.251 1223.6C457.428 1284.91 466.733 1345.04 481.677 1403.56C496.655 1463.02 517.27 1520.86 542.999 1575.68C545.592 1581.73 543.004 1588.91 536.926 1591.49C530.849 1594.07 523.634 1591.5 521.041 1585.45C494.77 1528.76 473.646 1470 458.142 1409.14C443.147 1349.21 433.773 1287.18 430.071 1224.48C429.831 1217.87 434.841 1212.02 441.479 1211.78C448.133 1212.01 453.537 1217.01 454.251 1223.6ZM596.061 984.571C584.586 1034.6 577.834 1083.98 575.367 1133.68C572.934 1184.32 575.225 1234.32 581.748 1283.22C582.462 1289.81 577.944 1296.12 571.324 1296.83C564.703 1297.55 558.368 1293.05 557.654 1286.46C550.588 1235.69 548.245 1184.28 550.644 1132.69C553.077 1082.05 559.76 1030.78 571.658 979.316C573.315 972.641 579.815 968.625 586.047 970.288C593.228 971.918 597.261 978.386 596.061 984.571ZM590.168 1332.06C598.366 1374.75 610.322 1416.37 625.088 1456.94C639.854 1497.51 657.922 1537.48 679.223 1574.98C682.291 1581.01 680.177 1588.18 674.591 1591.21C668.53 1594.27 661.333 1592.17 658.283 1586.61C636.93 1547.7 618.354 1506.79 602.588 1464.84C587.313 1423.35 575.306 1380.32 566.583 1336.22C565.394 1329.65 569.439 1323.36 576.042 1322.17C582.171 1321.01 588.506 1325.5 590.168 1332.06ZM758.295 1137.9C758.529 1131.28 753.582 1125.79 746.91 1125.09C740.255 1124.86 734.738 1129.78 734.029 1136.42C730.739 1202.69 736.915 1268.14 752.013 1330.9C767.636 1395.06 792.639 1456.05 825.547 1512.5C829.072 1518.04 836.269 1520.14 842.33 1517.08C847.899 1513.58 850.013 1506.41 846.945 1500.38C815.053 1445.79 791.085 1387.13 776.021 1325.31C761.026 1265.37 754.936 1202.28 758.295 1137.9ZM809.555 1033.04C791.928 1109.75 789.472 1185.91 799.715 1258.77L799.732 1259.24C810.551 1334.92 835.491 1407.25 872.536 1472.99C875.603 1479.02 883.275 1481.11 888.844 1477.6C894.905 1474.54 897.001 1466.91 893.476 1461.36C857.957 1398.4 834.069 1328.87 823.826 1256L823.809 1255.53C813.669 1185.5 816.245 1112.65 833.044 1039.28L833.027 1038.8C842.423 996.884 841.389 955.344 830.958 916.507C820.002 876.272 799.666 839.212 771.511 809.052C767.055 804.016 759.452 803.82 754.391 808.256C749.33 812.692 749.13 820.259 753.586 825.294C779.268 852.71 797.57 886.064 807.441 922.558C817.261 957.638 818.158 995.403 809.555 1033.04ZM884.273 1247.19C888.654 1276.33 894.932 1305.39 904.02 1333.41C913.109 1361.43 924.55 1388.89 937.854 1415.34C940.922 1421.37 938.334 1428.55 932.748 1431.59C926.687 1434.64 919.473 1432.07 916.422 1426.51C902.136 1399.16 890.168 1370.3 881.029 1340.86C871.906 1311.9 864.629 1281.45 860.196 1250.9C859.482 1244.31 864 1238.01 870.62 1237.3C877.224 1236.11 883.559 1240.61 884.273 1247.19ZM928.284 1060.38C950.018 966.045 931.419 872.225 883.55 796.005C835.681 719.785 759.034 661.619 664.251 640.021C657.545 638.375 653.512 631.907 655.186 625.704C656.842 619.029 663.343 615.013 669.575 616.676C770.607 640.41 853.08 702.144 903.982 783.451C954.885 864.758 974.689 965.621 951.756 1066.15L951.773 1066.62C940.297 1116.65 937.373 1166.83 941.526 1215.82C946.205 1266.21 958.909 1315.35 979.079 1360.92C981.672 1366.97 979.085 1374.15 972.533 1376.75C966.455 1379.34 959.241 1376.76 956.63 1370.24C935.426 1322.35 922.162 1270.86 916.906 1217.66C913.142 1166.3 915.98 1113.75 928.284 1060.38ZM987.64 1073.82C1013.04 962.81 990.997 852.579 935.045 762.951L934.554 762.496C878.145 673.357 787.863 605.765 676.806 580.505C601.176 563.408 525.387 568.051 456.869 589.912C385.541 612.819 321.553 654.832 272.337 711.427C267.767 716.318 260.198 717.065 255.286 712.519C250.373 707.972 249.625 700.44 254.195 695.549C306.627 636.002 374.322 591.493 449.866 567.015C522.599 543.584 602.656 538.786 683.061 556.654C800.824 583.56 896.476 655.21 955.918 749.436L956.409 749.89C1015.87 844.588 1039.12 961.863 1012.04 1079.08L1012.06 1079.55C1003.88 1115.75 1000.46 1152.26 1001.74 1187.65C1003.08 1224.45 1009.6 1260.12 1020.35 1294.7C1022.49 1301.23 1018.93 1307.98 1012.35 1309.63C1005.78 1311.76 999.003 1308.23 997.341 1301.67C986.047 1265.23 978.97 1227.22 977.564 1188.53C975.245 1150.81 979.072 1112.4 987.64 1073.82ZM1047 1087.26C1076.08 960.048 1051.07 833.388 986.575 730.84C922.083 628.293 818.132 550.331 690.31 520.955C641.487 509.972 592.939 506.538 546.088 510.602C497.339 514.735 449.797 525.912 405.356 544.063C399.278 546.646 392.046 543.601 389.453 537.553C386.86 531.505 389.921 524.307 395.999 521.724C442.793 503.015 492.672 490.809 543.791 486.589C593.487 482.422 644.423 486.241 695.633 497.61C830.145 528.16 938.992 610.197 1006.99 717.815C1074.99 825.432 1101.21 959.135 1070.47 1093.02L1070.48 1093.49C1066.38 1111.12 1063.71 1129.17 1062.45 1146.7C1061.22 1165.17 1061.4 1183.12 1062.52 1201.03C1063.24 1207.62 1058.23 1213.47 1051.61 1214.18C1044.99 1214.9 1039.11 1209.91 1038.39 1203.33C1036.76 1184.49 1036.53 1165.12 1038.2 1145.69C1039.85 1125.79 1042.48 1106.79 1047 1087.26ZM694.345 30.8499C701.017 31.5525 707.009 26.6101 707.717 19.9697C708.425 13.3293 703.461 7.36736 696.79 6.66476C627.192 -1.20166 557.851 -1.99025 490.207 4.71916C421.141 11.4802 353.28 25.2847 288.029 45.609C281.46 47.7375 277.907 54.4813 280.027 60.5465C282.163 67.0835 288.938 70.6173 295.033 68.506C358.878 48.7052 424.843 34.9696 492.504 28.7321C558.743 22.5462 626.17 22.9318 694.345 30.8499ZM821.362 116.479C827.594 118.143 834.586 114.581 836.243 107.907C837.916 101.704 834.34 94.7463 827.634 93.1C788.802 82.6986 750.056 74.6565 710.939 69.4627C671.822 64.2689 632.299 60.9798 592.405 60.539C585.75 60.3083 580.249 65.7053 580.015 72.3285C579.781 78.9517 585.202 84.4245 591.857 84.6553C630.329 85.1477 668.412 88.0167 707.055 93.2277C745.715 98.9105 783.496 106.515 821.362 116.479ZM543.006 85.9573C549.643 85.7162 554.653 79.8645 554.413 73.2585C554.173 66.6525 548.295 61.6688 541.658 61.9099C478.143 64.6895 414.869 74.075 353.258 90.0149C292.12 105.937 232.153 127.96 174.323 156.519C168.262 159.574 165.675 166.755 168.742 172.786C171.81 178.817 179.024 181.39 185.085 178.335C241.527 150.771 299.614 129.289 359.347 113.89C419.993 97.5128 481.388 88.668 543.006 85.9573ZM905.915 209.321C835.072 180.238 761.744 161.168 687.828 152.041C612.964 142.948 537.037 143.816 462.418 154.559C455.798 155.272 449.463 150.777 448.749 144.188C448.035 137.6 452.553 131.293 459.174 130.58C535.672 119.297 613.495 118.36 690.747 127.838C767.051 137.351 842.292 156.824 915.066 186.782C921.332 189.389 924.434 196.364 921.812 202.601C919.19 208.839 912.181 211.928 905.915 209.321ZM413.825 162.939C361.524 173.816 310.342 189.376 260.772 210.076C211.658 230.287 164.156 255.636 119.195 285.618C113.626 289.128 105.988 287.988 102.447 281.974C98.9223 276.432 100.07 268.831 106.114 265.304C152.463 234.327 201.37 208.454 251.889 187.72C302.865 166.497 355.925 150.395 409.632 138.995C416.235 137.81 422.553 141.833 423.741 148.404C424.472 155.465 419.954 161.771 413.825 162.939ZM970.27 308.093C976.079 311.19 983.613 309.498 986.726 303.716C989.84 297.933 988.143 290.435 982.334 287.338C948.409 268.254 913.13 251.109 876.532 236.847C840.425 223.039 802.964 211.17 764.201 202.656C636.87 173.736 509.264 176.481 390.222 205.846C266.964 236.782 152.812 296.209 57.0582 378.591C51.9972 383.027 51.3232 390.611 55.7788 395.646C60.2343 400.682 67.8544 401.35 72.9154 396.914C165.436 317.012 276.338 259.593 395.837 229.739C511.104 200.983 634.916 198.376 758.42 226.49C796.218 234.567 832.696 245.526 867.855 259.368C903.488 273.193 937.784 289.429 970.27 308.093ZM1021.11 413.971C1026.48 418.028 1034.04 416.809 1038.11 411.464C1042.19 406.118 1040.97 398.603 1035.6 394.546C991.662 361.179 944.593 333.122 894.868 310.36C845.143 287.597 792.288 270.145 738.233 258.88C731.544 257.705 725.044 261.721 723.862 268.379C722.679 275.036 726.712 281.504 733.401 282.679C786.016 293.525 836.484 310.591 884.752 332.461C933.021 354.332 978.633 381.496 1021.11 413.971ZM685.138 274.038C691.81 274.74 697.82 270.27 699.002 263.612C699.71 256.972 695.22 250.992 688.531 249.818C562.56 232.187 438.719 247.08 325.812 288.507C210.111 331.453 105.886 402.803 24.2766 495.538C19.7068 500.429 20.4723 508.433 25.3676 512.508C30.2802 517.054 38.323 516.289 42.4186 511.416C121.287 421.615 221.804 352.762 334.237 311.353C443.386 271.007 563.451 256.724 685.138 274.038ZM1060.47 530.188C1064.92 535.224 1073 535.403 1077.57 530.512C1082.63 526.076 1082.81 518.037 1077.9 513.491C1032.5 466.003 980.21 424.906 921.574 392.073C865.342 360.097 803.205 335.423 736.669 320.358C652.893 301.195 569.243 298.564 489.41 309.496C406.274 321.02 326.549 348.013 254.415 387.958C248.355 391.013 246.258 398.649 249.783 404.191C252.85 410.222 260.522 412.305 266.091 408.796C335.906 370.352 412.82 344.406 493.111 332.985C570.575 322.139 650.905 324.891 731.802 343.214C795.95 357.893 855.666 381.238 910.441 412.322C966.215 444.786 1016.56 484.536 1060.47 530.188ZM224.295 434.41C229.864 430.901 231.487 423.282 227.962 417.74C224.438 412.199 216.783 410.587 211.214 414.097C169.943 441.109 131.672 472.266 96.8732 507.548C62.5315 542.341 32.1371 581.244 5.63839 622.839C2.05116 628.639 3.7478 636.137 9.57428 639.705C15.4008 643.274 22.935 641.582 26.5223 635.782C52.107 595.165 81.6047 557.713 114.575 524.387C147.055 490.606 184.412 460.428 224.295 434.41ZM1088.11 663.84C1091.63 669.382 1099.29 670.994 1104.86 667.484C1110.43 663.975 1112.05 656.356 1108.52 650.814C1053.66 564.927 979.919 495.316 894.098 445.989C808.295 397.133 710.393 368.088 608.658 364.224C602.003 363.993 596.503 369.39 596.268 376.013C596.034 382.637 601.455 388.109 608.11 388.34C706.052 392.342 800.092 419.637 882.525 467.198C964.467 514.304 1035.75 581.641 1088.11 663.84ZM559.208 388.227C565.845 387.985 571.329 382.117 570.615 375.528C570.375 368.922 564.48 363.466 557.859 364.179C433.185 369.18 315.096 411.741 217.509 482.85C120.836 552.98 44.1903 651.677 0.978129 769.004C-1.16962 775.224 1.93215 782.199 8.18133 784.334C14.4305 786.469 21.4394 783.38 23.5872 777.16C65.0571 664.149 139.013 569.802 231.978 502.168C325.893 434.5 439.765 393.51 559.208 388.227ZM1100.68 840.09C1102.35 846.644 1109.12 850.178 1115.71 848.521C1122.29 846.865 1125.85 840.121 1124.18 833.567C1108.89 778.37 1085.16 726.315 1053.98 678.31C1022.82 630.776 984.701 587.748 940.185 551.567C934.815 547.51 927.247 548.257 923.151 553.13C919.073 558.476 919.821 566.008 924.716 570.083C967.284 604.917 1003.91 646.11 1033.56 691.335C1063.25 737.505 1085.95 787.235 1100.68 840.09Z" fill="url(#paint0_linear)" fill-opacity="0.05"/>
<defs>
<linearGradient id="paint0_linear" x1="533.256" y1="1.35086" x2="591.314" y2="1599.68" gradientUnits="userSpaceOnUse">
<stop stop-color="#1A2763"/>
<stop offset="1" stop-color="#1A2763"/>
</linearGradient>
</defs>
</svg>
