<svg width="15" height="20" viewBox="0 0 15 20" fill="none" xmlns="http://www.w3.org/2000/svg">
<path fill-rule="evenodd" clip-rule="evenodd" d="M2.96458 2.62404C0.929082 0.291271 2.02802 1.47326 1.7981 1.10917C1.56818 0.746379 1.44739 0.503221 1.35126 0.297771C1.25514 0.0923212 1.185 -0.0754223 1.09927 0.0351047C1.01483 0.145632 0.913495 0.533121 0.951165 0.94012C0.990134 1.34712 1.1655 1.77232 1.34736 2.12601C1.52922 2.47969 1.71758 2.76186 1.8085 2.90229C1.89813 3.04143 1.89163 3.04014 1.69808 2.8828C1.50453 2.72546 1.12522 2.41208 0.84594 2.16502C0.56666 1.91666 0.39001 1.73461 0.273102 1.65529C0.156194 1.57598 0.10165 1.59808 0.0925576 1.79833C0.0834648 1.99858 0.119815 2.37437 0.330249 2.75926C0.541983 3.14286 0.926505 3.53426 1.13434 3.75661C1.34088 3.97897 1.36944 4.03227 1.17849 3.94385C0.986238 3.85543 0.574478 3.62528 0.351053 3.49915C0.127629 3.37432 0.0925525 3.35482 0.0548822 3.41723C0.0172118 3.47965 -0.0230629 3.62529 0.0159064 3.81123C0.0548758 3.99718 0.173069 4.22082 0.358823 4.41717C0.544577 4.61351 0.797905 4.78125 0.90572 4.86967C1.01483 4.9581 0.978442 4.9659 0.819967 4.9568C0.661491 4.9477 0.380909 4.91909 0.232826 4.97501C0.0847422 5.02962 0.0704699 5.16876 0.152306 5.31699C0.234141 5.46653 0.41468 5.62516 0.587445 5.76299C0.762807 5.90083 0.931679 6.01787 0.884916 6.09979C0.838153 6.18171 0.57446 6.22721 0.462748 6.32083C0.352334 6.41576 0.392617 6.55879 0.606948 6.71483C0.819981 6.87087 1.20577 7.03862 1.40971 7.14134C1.61365 7.24407 1.63444 7.28178 1.47986 7.30518C1.32528 7.32729 0.995325 7.33378 0.881015 7.40529C0.766705 7.47681 0.868038 7.61465 1.05639 7.73688C1.24344 7.85781 1.51882 7.96314 1.72665 8.04766C1.93449 8.13218 2.07609 8.1959 2.02802 8.26221C1.98126 8.32853 1.74615 8.39744 1.70978 8.54698C1.67211 8.69651 1.83059 8.92538 1.96958 9.06061C2.10857 9.19584 2.22807 9.23615 2.22937 9.30377C2.23197 9.37139 2.11637 9.46631 2.10598 9.56383C2.09688 9.66136 2.19038 9.76147 2.30859 9.83169C2.4268 9.90191 2.56841 9.94351 2.59309 10.0046C2.61777 10.0657 2.52552 10.1451 2.50084 10.2283C2.47616 10.3102 2.51904 10.3934 2.61907 10.4715C2.71779 10.5495 2.87365 10.621 2.95808 10.6912C3.04252 10.7601 3.05553 10.829 3.05034 10.9071C3.04384 10.9864 3.01914 11.0748 3.06591 11.1437C3.11267 11.2126 3.23219 11.2607 3.30883 11.2998C3.38677 11.3388 3.42314 11.37 3.40625 11.4558C3.38937 11.5416 3.31792 11.682 3.34001 11.8069C3.36339 11.9317 3.48028 12.0396 3.5868 12.1138C3.69331 12.1879 3.78944 12.2282 3.81412 12.301C3.8375 12.3751 3.78945 12.4804 3.82712 12.5949C3.86609 12.7093 3.99077 12.8289 4.12976 12.9004C4.26875 12.9707 4.42205 12.9915 4.50259 13.0643C4.58182 13.1371 4.58962 13.2606 4.63898 13.3438C4.68835 13.4271 4.77797 13.4687 4.89358 13.4765C4.96762 13.4817 5.05335 13.4726 5.1196 13.4882C5.13519 13.5493 5.17414 13.5987 5.23129 13.6351C5.23649 13.7339 5.19233 13.8692 5.1027 13.9628C4.97929 14.0902 4.76758 14.1448 4.50519 14.1188C4.24279 14.0928 3.93102 13.9875 3.5738 13.8874C3.21658 13.7886 2.8139 13.6949 2.44369 13.6286C2.07478 13.5623 1.73834 13.5233 1.62533 13.626C1.51362 13.7274 1.62795 13.9719 1.55521 14.1383C1.48377 14.3061 1.22525 14.3958 1.14341 14.544C1.06158 14.6923 1.15251 14.8977 1.17849 15.059C1.20447 15.2215 1.1642 15.3411 1.07846 15.4543C0.99273 15.5687 0.862833 15.6766 0.884916 15.8235C0.906998 15.9705 1.08238 16.1564 1.16552 16.2748C1.24865 16.3931 1.23954 16.4451 1.15121 16.514C1.06288 16.5829 0.896627 16.6688 0.873245 16.8001C0.851163 16.9301 0.974562 17.107 1.09667 17.2448C1.22137 17.3839 1.34606 17.4854 1.34866 17.6388C1.35256 17.7935 1.23435 18.0003 1.28371 18.1394C1.33177 18.2799 1.5487 18.3527 1.60846 18.4749C1.66951 18.5971 1.5747 18.7662 1.65393 18.8741C1.73317 18.982 1.98646 19.0262 2.16182 19.0717C2.33718 19.1173 2.4333 19.1654 2.48007 19.2421C2.52683 19.3188 2.52293 19.4228 2.60866 19.4631C2.6931 19.5035 2.86716 19.4774 2.99446 19.4891C3.12176 19.4995 3.20231 19.5464 3.30623 19.614C3.40885 19.6803 3.53484 19.7661 3.65045 19.7726C3.76606 19.7804 3.87388 19.7076 3.97909 19.6985C4.08431 19.6894 4.18822 19.7453 4.26746 19.809C4.3467 19.8714 4.40255 19.943 4.51816 19.917C4.63377 19.8909 4.80913 19.7661 4.94032 19.783C5.07022 19.7999 5.15468 19.9573 5.2573 19.9924C5.35862 20.0288 5.47812 19.943 5.64179 19.5594C5.80546 19.1771 6.01719 18.4944 6.12241 17.8494C6.22892 17.2045 6.23282 16.5946 6.5108 16.3424C6.79008 16.0914 7.34344 16.198 8.0293 16.1096C8.71516 16.0225 9.53093 15.739 10.2181 15.2722C10.9053 14.8041 11.4625 14.1513 11.8613 13.6702C12.2601 13.1891 12.5017 12.8809 12.8213 12.5428C13.1408 12.2061 13.5409 11.842 13.7604 11.6404C13.9799 11.4389 14.0202 11.3999 14.1579 11.3635C14.2969 11.3271 14.5359 11.2919 14.7307 11.2659C14.9269 11.2399 15.0802 11.2204 14.9542 11.1359C14.8295 11.0514 14.4255 10.9018 14.2021 10.8199C13.9786 10.738 13.9345 10.7237 13.8825 10.6145C13.8305 10.5053 13.7695 10.3011 13.5318 10.1646C13.2941 10.028 12.8797 9.95782 12.4848 10.1438C12.0899 10.3297 11.7145 10.7692 11.3001 11.0202C11.0806 11.1528 10.8481 11.2334 10.6312 11.2659C10.3129 11.3063 10.0297 11.1788 9.99337 10.7705C9.9531 10.3232 9.91934 10.3973 9.90245 9.92791C9.88556 9.4585 9.87125 9.08531 9.58287 8.48326C9.2945 7.88121 8.73205 7.05031 8.19687 6.12579C7.66169 5.19996 7.15378 4.17922 6.81994 3.40293C6.48611 2.62534 6.32636 2.0935 6.22893 1.7008C6.13151 1.30811 6.09641 1.05325 6.07303 0.841295C6.04835 0.629343 6.03538 0.459001 5.92626 0.531819C5.81585 0.604637 5.6106 0.921913 5.52356 1.2951C5.43653 1.6696 5.46641 2.10261 5.52356 2.4732C5.58072 2.84379 5.66387 3.15197 5.70284 3.30541C5.74181 3.45754 5.73662 3.45364 5.61062 3.25469C5.48592 3.05574 5.24038 2.66174 5.06502 2.35747C4.88966 2.05319 4.78577 1.83733 4.70523 1.73201C4.626 1.62538 4.56883 1.62929 4.50128 1.80483C4.43374 1.98038 4.35319 2.32887 4.42723 2.73456C4.50128 3.14026 4.68703 3.62918 4.8481 3.86583C5.83013 5.30658 7.72145 6.41445 7.94098 7.52232C7.6604 6.56139 4.99618 4.95809 2.96068 2.62533L2.96458 2.62404Z" fill="#5790FB"/>
</svg>
