<svg width="24" height="25" viewBox="0 0 24 25" fill="none" xmlns="http://www.w3.org/2000/svg">
<path d="M10.1434 24.856C10.1434 21.0525 11.5666 17.4047 14.0998 14.7152C16.633 12.0258 20.0688 10.5148 23.6514 10.5148C23.6514 12.3981 23.302 14.263 22.6231 16.0029C21.9443 17.7429 20.9493 19.3238 19.695 20.6555C18.4407 21.9872 16.9515 23.0436 15.3127 23.7643C13.6738 24.485 11.9173 24.856 10.1434 24.856Z" fill="#00CD67"/>
<path d="M3.97292 0C2.71372 1.30578 1.71454 2.85775 1.03275 4.56682C0.350967 6.27589 0 8.10839 0 9.95911C0 11.8098 0.350967 13.6423 1.03275 15.3514C1.71454 17.0605 2.71372 18.6124 3.97292 19.9182C5.23213 18.6124 6.2313 17.0605 6.91309 15.3514C7.59488 13.6423 7.94584 11.8098 7.94584 9.95911C7.94584 8.10839 7.59488 6.27589 6.91309 4.56682C6.2313 2.85775 5.23213 1.30578 3.97292 0Z" fill="#00CDEF"/>
</svg>
