<svg width="270" height="58" viewBox="0 0 270 58" fill="none" xmlns="http://www.w3.org/2000/svg">
<path fill-rule="evenodd" clip-rule="evenodd" d="M174.388 5.0093C172.884 3.28706 173.696 4.1597 173.526 3.8909C173.356 3.62306 173.267 3.44354 173.196 3.29186C173.125 3.14018 173.073 3.01634 173.01 3.09794C172.947 3.17954 172.872 3.46561 172.9 3.76609C172.929 4.06657 173.059 4.38049 173.193 4.64161C173.327 4.90273 173.467 5.11105 173.534 5.21473C173.6 5.31745 173.595 5.3165 173.452 5.20034C173.309 5.08418 173.029 4.85282 172.822 4.67042C172.616 4.48706 172.485 4.35265 172.399 4.29409C172.313 4.23553 172.272 4.25185 172.266 4.39969C172.259 4.54753 172.286 4.82497 172.441 5.10913C172.598 5.39233 172.882 5.6813 173.036 5.84546C173.188 6.00962 173.209 6.04897 173.068 5.98369C172.926 5.91841 172.622 5.7485 172.457 5.65538C172.292 5.56322 172.266 5.54882 172.238 5.5949C172.21 5.64098 172.18 5.7485 172.209 5.88578C172.238 6.02306 172.325 6.18817 172.462 6.33313C172.6 6.47809 172.787 6.60193 172.867 6.66721C172.947 6.73249 172.92 6.73826 172.803 6.73154C172.686 6.72482 172.479 6.7037 172.369 6.74498C172.26 6.7853 172.249 6.88802 172.31 6.99746C172.37 7.10786 172.504 7.22497 172.631 7.32673C172.761 7.42849 172.886 7.5149 172.851 7.57538C172.817 7.63586 172.622 7.66946 172.539 7.73858C172.458 7.80866 172.487 7.91426 172.646 8.02946C172.803 8.14466 173.088 8.2685 173.239 8.34434C173.39 8.42018 173.405 8.44802 173.291 8.4653C173.177 8.48162 172.933 8.48641 172.848 8.53921C172.764 8.59201 172.839 8.69378 172.978 8.78402C173.116 8.8733 173.32 8.95106 173.473 9.01346C173.627 9.07586 173.732 9.1229 173.696 9.17186C173.662 9.22082 173.488 9.2717 173.461 9.3821C173.433 9.4925 173.55 9.66146 173.653 9.7613C173.756 9.86114 173.844 9.8909 173.845 9.94082C173.847 9.99074 173.761 10.0608 173.754 10.1328C173.747 10.2048 173.816 10.2787 173.903 10.3306C173.991 10.3824 174.095 10.4131 174.114 10.4583C174.132 10.5034 174.064 10.5619 174.045 10.6234C174.027 10.6839 174.059 10.7453 174.133 10.8029C174.206 10.8605 174.321 10.9133 174.383 10.9651C174.446 11.016 174.455 11.0669 174.452 11.1245C174.447 11.1831 174.429 11.2483 174.463 11.2992C174.498 11.3501 174.586 11.3856 174.643 11.4144C174.7 11.4432 174.727 11.4663 174.715 11.5296C174.702 11.593 174.649 11.6967 174.666 11.7888C174.683 11.881 174.769 11.9607 174.848 12.0154C174.927 12.0701 174.998 12.0999 175.016 12.1536C175.033 12.2083 174.998 12.2861 175.026 12.3706C175.054 12.4551 175.147 12.5434 175.249 12.5962C175.352 12.648 175.465 12.6634 175.525 12.7171C175.583 12.7709 175.589 12.8621 175.626 12.9235C175.662 12.985 175.728 13.0157 175.814 13.0215C175.869 13.0253 175.932 13.0186 175.981 13.0301C175.992 13.0752 176.021 13.1117 176.063 13.1386C176.067 13.2115 176.035 13.3114 175.968 13.3805C175.877 13.4746 175.721 13.5149 175.527 13.4957C175.333 13.4765 175.102 13.3987 174.838 13.3248C174.574 13.2519 174.277 13.1827 174.003 13.1338C173.731 13.0848 173.482 13.056 173.398 13.1319C173.316 13.2067 173.4 13.3872 173.347 13.5101C173.294 13.6339 173.103 13.7002 173.042 13.8096C172.982 13.9191 173.049 14.0707 173.068 14.1898C173.087 14.3098 173.058 14.3981 172.994 14.4816C172.931 14.5661 172.835 14.6458 172.851 14.7543C172.868 14.8627 172.997 15 173.059 15.0874C173.12 15.1747 173.113 15.2131 173.048 15.264C172.983 15.3149 172.86 15.3783 172.843 15.4752C172.826 15.5712 172.918 15.7018 173.008 15.8035C173.1 15.9063 173.192 15.9811 173.194 16.0944C173.197 16.2087 173.11 16.3613 173.146 16.464C173.182 16.5677 173.342 16.6215 173.386 16.7117C173.431 16.8019 173.361 16.9267 173.42 17.0064C173.478 17.0861 173.665 17.1187 173.795 17.1523C173.925 17.1859 173.996 17.2215 174.03 17.2781C174.065 17.3347 174.062 17.4115 174.125 17.4413C174.188 17.4711 174.316 17.4519 174.41 17.4605C174.504 17.4682 174.564 17.5027 174.641 17.5527C174.717 17.6016 174.81 17.665 174.895 17.6698C174.981 17.6755 175.06 17.6218 175.138 17.6151C175.216 17.6083 175.293 17.6496 175.351 17.6967C175.41 17.7427 175.451 17.7955 175.536 17.7763C175.622 17.7571 175.751 17.665 175.848 17.6775C175.944 17.6899 176.007 17.8061 176.083 17.832C176.158 17.8589 176.246 17.7955 176.367 17.5123C176.488 17.2301 176.644 16.7261 176.722 16.2499C176.801 15.7738 176.804 15.3235 177.009 15.1373C177.215 14.952 177.624 15.0307 178.131 14.9655C178.638 14.9011 179.241 14.6919 179.749 14.3472C180.257 14.0016 180.669 13.5197 180.963 13.1645C181.258 12.8093 181.437 12.5818 181.673 12.3322C181.909 12.0835 182.205 11.8147 182.367 11.6659C182.529 11.5171 182.559 11.4883 182.661 11.4615C182.763 11.4346 182.94 11.4087 183.084 11.3895C183.229 11.3703 183.342 11.3559 183.249 11.2935C183.157 11.2311 182.858 11.1207 182.693 11.0602C182.528 10.9997 182.495 10.9891 182.457 10.9085C182.419 10.8279 182.374 10.6771 182.198 10.5763C182.022 10.4755 181.716 10.4237 181.424 10.561C181.132 10.6983 180.855 11.0227 180.549 11.208C180.386 11.3059 180.214 11.3655 180.054 11.3895C179.819 11.4192 179.61 11.3251 179.583 11.0237C179.553 10.6935 179.528 10.7482 179.516 10.4016C179.503 10.0551 179.493 9.77954 179.279 9.33506C179.066 8.89058 178.651 8.27714 178.255 7.59458C177.86 6.91106 177.484 6.15746 177.237 5.58434C176.991 5.01026 176.873 4.61761 176.801 4.32769C176.729 4.03777 176.703 3.84961 176.685 3.69313C176.667 3.53665 176.658 3.41089 176.577 3.46465C176.495 3.51841 176.344 3.75265 176.279 4.02817C176.215 4.30465 176.237 4.62434 176.279 4.89794C176.322 5.17154 176.383 5.39906 176.412 5.51234C176.441 5.62466 176.437 5.62178 176.344 5.4749C176.252 5.32802 176.07 5.03714 175.941 4.8125C175.811 4.58786 175.734 4.42849 175.675 4.35073C175.616 4.27201 175.574 4.2749 175.524 4.4045C175.474 4.5341 175.414 4.79138 175.469 5.0909C175.524 5.39042 175.661 5.75137 175.78 5.92609C176.506 6.98977 177.904 7.80769 178.066 8.62561C177.859 7.91617 175.89 6.73249 174.385 5.01025L174.388 5.0093Z" fill="#5790FB"/>
<path d="M100.49 19.2174L92.9955 38.3128L85.6102 19.2174H75.9805L87.7712 47.2859H97.52L109.364 19.2174H100.492H100.49ZM257.653 18.7998C253.844 18.7998 249.308 21.3179 247.689 25.2357V19.2174H239.916V47.2859H248.055V33.4081C248.055 28.2433 250.872 25.8433 254.784 25.8433C258.384 25.8433 261.584 27.9304 261.584 32.4693V47.2859H269.723V31.2174C269.723 22.6609 264.278 18.7998 257.652 18.7998H257.653ZM221.98 18.7998C213.424 18.7998 207.007 24.8517 207.007 33.2517C207.007 41.5989 211.869 47.7035 223.024 47.7035C228.085 47.7035 234.109 45.0174 236.086 37.636L228.117 37.6264C227.03 40.4977 225.029 41.5864 222.056 41.5864C219.902 41.5864 215.636 40.5102 215.636 34.8894H235.521C236.223 25.8376 231.735 18.7998 221.98 18.7998ZM222.032 24.9563C225.685 24.9563 227.57 27.2517 228.144 30.7998H215.634C216.208 27.1998 218.329 24.9563 222.033 24.9563H222.032ZM197.136 17.3723C197.136 14.6075 198.441 13.3029 200.841 13.3029C202.093 13.3029 204.623 13.6677 205.51 14.2936L205.511 8.19566C204.335 7.33742 202.354 6.88525 200.058 6.88525C193.067 6.88525 189.206 11.0075 189.206 17.3195V19.8424H184.875V26.1035H189.206V47.2849H197.345V26.1035H206.266V19.8424H197.135V17.3713L197.136 17.3723ZM173.54 47.2859H181.678V19.2174H173.54V47.2859ZM160.033 18.7998C156.225 18.7998 151.991 21.3179 150.374 25.2357V19.2174H142.6V47.2859H150.739V33.4081C150.739 28.2433 153.253 25.8433 157.165 25.8433C159.788 25.8433 161.402 27.9313 161.402 32.4693V35.3829H169.541V31.2174C169.541 22.6609 166.658 18.7998 160.032 18.7998H160.033ZM124.94 18.7998C116.383 18.7998 109.965 24.8517 109.965 33.2517C109.965 41.5989 114.829 47.7035 125.982 47.7035C131.043 47.7035 137.067 45.0174 139.046 37.636L131.076 37.6264C129.989 40.4977 127.988 41.5864 125.014 41.5864C122.86 41.5864 118.595 40.5102 118.595 34.8894H138.479C139.181 25.8376 134.693 18.7998 124.939 18.7998H124.94ZM124.991 24.9563C128.644 24.9563 130.53 27.2517 131.103 30.7998H118.592C119.166 27.1998 121.287 24.9563 124.991 24.9563Z" fill="#353849"/>
<path d="M151.899 54.096C151.769 53.8224 151.58 53.6103 151.333 53.4595C151.086 53.3088 150.798 53.2339 150.471 53.2339C150.144 53.2339 149.848 53.3088 149.585 53.4595C149.323 53.6103 149.116 53.8253 148.966 54.1056C148.815 54.3869 148.74 54.7104 148.74 55.0791C148.74 55.4467 148.815 55.7703 148.966 56.0487C149.116 56.3271 149.323 56.5411 149.585 56.6919C149.848 56.8426 150.143 56.9175 150.471 56.9175C150.929 56.9175 151.306 56.7802 151.602 56.5066C151.899 56.233 152.071 55.8624 152.12 55.3959H150.248V54.8976H152.773V55.369C152.738 55.7549 152.617 56.1082 152.409 56.4298C152.203 56.7504 151.931 57.0039 151.595 57.1911C151.258 57.3773 150.884 57.4704 150.471 57.4704C150.035 57.4704 149.639 57.3687 149.28 57.1642C148.921 56.9597 148.636 56.6755 148.427 56.3127C148.219 55.9488 148.114 55.5389 148.114 55.081C148.114 54.6231 148.219 54.2112 148.427 53.8455C148.636 53.4797 148.921 53.1946 149.28 52.9901C149.639 52.7856 150.036 52.6839 150.471 52.6839C150.969 52.6839 151.41 52.8067 151.794 53.0544C152.178 53.3011 152.457 53.6487 152.632 54.0979H151.898L151.899 54.096ZM154.424 54.3379C154.532 54.1267 154.685 53.9626 154.886 53.8464C155.086 53.7293 155.329 53.6707 155.617 53.6707V54.3034H155.455C154.768 54.3034 154.425 54.6759 154.425 55.4208V57.4272H153.813V53.737H154.425V54.336L154.424 54.3379ZM158.163 57.4887C157.817 57.4887 157.504 57.4099 157.223 57.2535C156.942 57.096 156.723 56.8733 156.563 56.5834C156.404 56.2935 156.324 55.9584 156.324 55.5773C156.324 55.2 156.406 54.8669 156.57 54.577C156.733 54.288 156.958 54.0653 157.24 53.9107C157.522 53.7562 157.839 53.6784 158.189 53.6784C158.54 53.6784 158.856 53.7562 159.139 53.9107C159.421 54.0653 159.646 54.2861 159.809 54.5741C159.972 54.8611 160.055 55.1952 160.055 55.5773C160.055 55.9584 159.971 56.2944 159.802 56.5834C159.634 56.8733 159.406 57.096 159.119 57.2535C158.832 57.4099 158.513 57.4887 158.163 57.4887ZM158.163 56.9501C158.382 56.9501 158.589 56.8983 158.782 56.7955C158.975 56.6919 159.13 56.5373 159.249 56.3309C159.368 56.1245 159.428 55.873 159.428 55.5773C159.428 55.2807 159.369 55.0301 159.253 54.8237C159.137 54.6173 158.984 54.4637 158.795 54.3619C158.607 54.2611 158.403 54.2112 158.183 54.2112C157.958 54.2112 157.753 54.2611 157.566 54.3619C157.38 54.4637 157.231 54.6173 157.119 54.8237C157.007 55.0301 156.951 55.2816 156.951 55.5773C156.951 55.8778 157.006 56.1312 157.116 56.3386C157.227 56.545 157.373 56.6986 157.557 56.7994C157.741 56.9002 157.943 56.9511 158.163 56.9511V56.9501ZM166.008 53.7379L164.856 57.4282H164.223L163.334 54.4992L162.445 57.4282H161.812L160.655 53.7379H161.281L162.128 56.8349L163.044 53.7379H163.67L164.566 56.8416L165.401 53.7379H166.007H166.008ZM171.927 52.7347L170.399 55.657V57.4282H169.786V55.657L168.251 52.7347H168.931L170.089 55.1117L171.246 52.7347H171.926H171.927ZM174.412 57.4887C174.067 57.4887 173.754 57.4099 173.473 57.2535C173.192 57.096 172.973 56.8733 172.813 56.5834C172.653 56.2935 172.574 55.9584 172.574 55.5773C172.574 55.2 172.656 54.8669 172.82 54.577C172.984 54.288 173.208 54.0653 173.49 53.9107C173.772 53.7562 174.089 53.6784 174.439 53.6784C174.79 53.6784 175.106 53.7562 175.389 53.9107C175.671 54.0653 175.896 54.2861 176.059 54.5741C176.222 54.8611 176.305 55.1952 176.305 55.5773C176.305 55.9584 176.221 56.2944 176.052 56.5834C175.884 56.8733 175.656 57.096 175.369 57.2535C175.082 57.4099 174.763 57.4887 174.412 57.4887ZM174.412 56.9501C174.632 56.9501 174.839 56.8983 175.032 56.7955C175.225 56.6919 175.38 56.5373 175.499 56.3309C175.618 56.1245 175.678 55.873 175.678 55.5773C175.678 55.2807 175.619 55.0301 175.503 54.8237C175.387 54.6173 175.234 54.4637 175.045 54.3619C174.857 54.2611 174.652 54.2112 174.433 54.2112C174.208 54.2112 174.003 54.2611 173.816 54.3619C173.63 54.4637 173.481 54.6173 173.369 54.8237C173.257 55.0301 173.201 55.2816 173.201 55.5773C173.201 55.8778 173.256 56.1312 173.366 56.3386C173.477 56.545 173.623 56.6986 173.807 56.7994C173.991 56.9002 174.193 56.9511 174.412 56.9511V56.9501ZM180.614 53.7379V57.4282H180.002V56.8829C179.884 57.0711 179.722 57.2189 179.513 57.3235C179.305 57.4291 179.074 57.4819 178.823 57.4819C178.536 57.4819 178.277 57.4224 178.048 57.3043C177.82 57.1853 177.639 57.0067 177.506 56.7687C177.373 56.5306 177.307 56.2416 177.307 55.8999V53.7379H177.913V55.8183C177.913 56.1821 178.005 56.4615 178.189 56.6563C178.373 56.8522 178.625 56.9491 178.943 56.9491C179.27 56.9491 179.528 56.8474 179.717 56.6458C179.906 56.4442 180 56.1495 180 55.7635V53.737H180.612L180.614 53.7379ZM182.493 54.337C182.601 54.1258 182.754 53.9616 182.955 53.8455C183.154 53.7283 183.398 53.6698 183.685 53.6698V54.3024H183.524C182.837 54.3024 182.494 54.6749 182.494 55.4199V57.4263H181.881V53.736H182.494V54.3351L182.493 54.337ZM188.769 55.0099C188.94 55.0368 189.096 55.1069 189.237 55.2192C189.378 55.3315 189.49 55.4707 189.574 55.6368C189.657 55.8029 189.699 55.9805 189.699 56.1687C189.699 56.4067 189.638 56.6208 189.516 56.8119C189.395 57.0019 189.22 57.1527 188.988 57.2631C188.757 57.3735 188.484 57.4282 188.17 57.4282H186.419V52.7347H188.103C188.422 52.7347 188.693 52.7875 188.918 52.8931C189.142 52.9978 189.311 53.1408 189.423 53.3203C189.535 53.4999 189.591 53.7015 189.591 53.9261C189.591 54.2045 189.516 54.4349 189.365 54.6163C189.215 54.7978 189.016 54.9293 188.769 55.0099ZM187.033 54.7613H188.063C188.35 54.7613 188.572 54.6941 188.729 54.5597C188.886 54.4243 188.965 54.2381 188.965 54.001C188.965 53.7629 188.886 53.5767 188.729 53.4423C188.572 53.3069 188.345 53.2397 188.049 53.2397H187.033V54.7613ZM188.116 56.9232C188.422 56.9232 188.66 56.8512 188.83 56.7072C189.001 56.5642 189.086 56.3645 189.086 56.1082C189.086 55.848 188.997 55.6426 188.816 55.4919C188.637 55.3411 188.397 55.2663 188.096 55.2663H187.033V56.9232H188.116ZM194.049 53.7379V57.4282H193.436V56.8829C193.319 57.0711 193.156 57.2189 192.947 57.3235C192.739 57.4291 192.509 57.4819 192.257 57.4819C191.969 57.4819 191.712 57.4224 191.482 57.3043C191.253 57.1853 191.073 57.0067 190.94 56.7687C190.807 56.5306 190.741 56.2416 190.741 55.8999V53.7379H191.347V55.8183C191.347 56.1821 191.439 56.4615 191.622 56.6563C191.807 56.8522 192.058 56.9491 192.376 56.9491C192.704 56.9491 192.962 56.8474 193.151 56.6458C193.339 56.4442 193.433 56.1495 193.433 55.7635V53.737H194.046L194.049 53.7379ZM196.622 57.4887C196.34 57.4887 196.085 57.4407 195.861 57.3437C195.636 57.2477 195.459 57.1123 195.329 56.9395C195.198 56.7667 195.126 56.568 195.113 56.3443H195.746C195.764 56.5277 195.85 56.6784 196.005 56.7955C196.159 56.9117 196.363 56.9703 196.614 56.9703C196.848 56.9703 197.032 56.9184 197.166 56.8147C197.301 56.712 197.368 56.5815 197.368 56.424C197.368 56.2627 197.296 56.1427 197.153 56.064C197.009 55.9853 196.787 55.9075 196.487 55.8307C196.213 55.7597 195.989 55.6858 195.817 55.6119C195.644 55.5379 195.496 55.4275 195.372 55.2816C195.249 55.1357 195.187 54.9437 195.187 54.7056C195.187 54.5175 195.244 54.3447 195.356 54.1872C195.468 54.0298 195.628 53.9059 195.834 53.8138C196.04 53.7216 196.276 53.6755 196.54 53.6755C196.949 53.6755 197.279 53.7783 197.53 53.9856C197.782 54.192 197.916 54.4743 197.933 54.8333H197.321C197.308 54.6403 197.23 54.4858 197.089 54.3687C196.948 54.2515 196.757 54.1939 196.519 54.1939C196.3 54.1939 196.125 54.241 195.994 54.3351C195.865 54.4291 195.799 54.553 195.799 54.7047C195.799 54.8266 195.839 54.9264 195.916 55.0042C195.995 55.0829 196.094 55.1453 196.213 55.1923C196.332 55.2394 196.497 55.2922 196.708 55.3507C196.973 55.4227 197.188 55.4928 197.355 55.5629C197.521 55.632 197.663 55.7367 197.782 55.8759C197.901 56.0151 197.962 56.1965 197.967 56.4211C197.967 56.6237 197.91 56.8051 197.799 56.9674C197.687 57.1287 197.528 57.2554 197.325 57.3475C197.12 57.4397 196.886 57.4858 196.621 57.4858L196.622 57.4887ZM199.377 53.1389C199.26 53.1389 199.161 53.0986 199.081 53.0179C199 52.9373 198.96 52.8384 198.96 52.7213C198.96 52.6042 199 52.5063 199.081 52.4247C199.161 52.344 199.26 52.3037 199.377 52.3037C199.49 52.3037 199.585 52.344 199.663 52.4247C199.741 52.5053 199.78 52.6042 199.78 52.7213C199.78 52.8384 199.741 52.9373 199.663 53.0179C199.585 53.0986 199.49 53.1389 199.377 53.1389ZM199.673 53.7379V57.4282H199.06V53.7379H199.673ZM202.744 53.6707C203.193 53.6707 203.556 53.8061 203.835 54.0778C204.113 54.3495 204.252 54.7411 204.252 55.2528V57.4272H203.646V55.3402C203.646 54.9725 203.554 54.6903 203.371 54.4954C203.187 54.2995 202.935 54.2026 202.617 54.2026C202.294 54.2026 202.036 54.3034 201.846 54.505C201.655 54.7066 201.56 55.0013 201.56 55.3872V57.4272H200.947V53.737H201.56V54.2621C201.681 54.0739 201.846 53.928 202.055 53.8243C202.263 53.7216 202.493 53.6698 202.745 53.6698L202.744 53.6707ZM208.852 55.441C208.852 55.5581 208.846 55.681 208.832 55.8115H205.883C205.905 56.1754 206.03 56.4586 206.257 56.6631C206.483 56.8675 206.758 56.9693 207.081 56.9693C207.346 56.9693 207.567 56.9069 207.745 56.784C207.922 56.6602 208.047 56.496 208.118 56.2896H208.778C208.679 56.6439 208.482 56.9328 208.185 57.1546C207.889 57.3763 207.521 57.4877 207.081 57.4877C206.731 57.4877 206.418 57.409 206.142 57.2525C205.867 57.0951 205.65 56.8723 205.492 56.5824C205.335 56.2925 205.256 55.9575 205.256 55.5763C205.256 55.1943 205.333 54.8602 205.486 54.5731C205.638 54.2851 205.853 54.0643 206.129 53.9098C206.405 53.7552 206.723 53.6775 207.082 53.6775C207.433 53.6775 207.742 53.7543 208.012 53.9069C208.281 54.0595 208.488 54.2698 208.634 54.5367C208.78 54.8035 208.852 55.1059 208.852 55.4419V55.441ZM208.22 55.3133C208.22 55.08 208.168 54.8794 208.065 54.7104C207.963 54.5424 207.821 54.4138 207.645 54.3264C207.467 54.2391 207.271 54.1949 207.055 54.1949C206.745 54.1949 206.482 54.2938 206.264 54.4915C206.046 54.6893 205.923 54.9629 205.891 55.3133H208.221H208.22ZM211.197 57.4877C210.915 57.4877 210.66 57.4397 210.436 57.3427C210.211 57.2467 210.033 57.1114 209.904 56.9386C209.773 56.7658 209.701 56.5671 209.688 56.3434H210.32C210.339 56.5267 210.425 56.6775 210.58 56.7946C210.734 56.9107 210.938 56.9693 211.189 56.9693C211.422 56.9693 211.606 56.9175 211.741 56.8138C211.876 56.7111 211.943 56.5805 211.943 56.4231C211.943 56.2618 211.871 56.1418 211.728 56.0631C211.584 55.9843 211.362 55.9066 211.061 55.8298C210.788 55.7587 210.564 55.6848 210.391 55.6109C210.219 55.537 210.071 55.4266 209.947 55.2807C209.824 55.1347 209.762 54.9427 209.762 54.7047C209.762 54.5165 209.817 54.3437 209.93 54.1863C210.042 54.0288 210.201 53.905 210.408 53.8128C210.614 53.7207 210.849 53.6746 211.114 53.6746C211.523 53.6746 211.853 53.7773 212.104 53.9847C212.356 54.1911 212.49 54.4733 212.508 54.8323H211.896C211.882 54.6394 211.804 54.4848 211.663 54.3677C211.522 54.2506 211.332 54.193 211.094 54.193C210.874 54.193 210.699 54.24 210.569 54.3341C210.438 54.4282 210.373 54.552 210.373 54.7037C210.373 54.8256 210.412 54.9255 210.491 55.0032C210.569 55.0819 210.668 55.1443 210.787 55.1914C210.906 55.2384 211.071 55.2912 211.282 55.3498C211.547 55.4218 211.762 55.4919 211.928 55.5619C212.094 55.6311 212.236 55.7357 212.356 55.8749C212.475 56.0141 212.536 56.1955 212.541 56.4202C212.541 56.6227 212.484 56.8042 212.373 56.9664C212.26 57.1277 212.102 57.2544 211.899 57.3466C211.694 57.4387 211.46 57.4848 211.195 57.4848L211.197 57.4877ZM214.942 57.4877C214.659 57.4877 214.405 57.4397 214.18 57.3427C213.956 57.2467 213.778 57.1114 213.649 56.9386C213.519 56.7658 213.447 56.5671 213.434 56.3434H214.066C214.084 56.5267 214.17 56.6775 214.325 56.7946C214.48 56.9107 214.683 56.9693 214.935 56.9693C215.168 56.9693 215.353 56.9175 215.487 56.8138C215.622 56.7111 215.69 56.5805 215.69 56.4231C215.69 56.2618 215.618 56.1418 215.475 56.0631C215.331 55.9843 215.109 55.9066 214.808 55.8298C214.535 55.7587 214.311 55.6848 214.138 55.6109C213.965 55.537 213.818 55.4266 213.694 55.2807C213.57 55.1347 213.508 54.9427 213.508 54.7047C213.508 54.5165 213.564 54.3437 213.676 54.1863C213.789 54.0288 213.948 53.905 214.155 53.8128C214.361 53.7207 214.597 53.6746 214.862 53.6746C215.27 53.6746 215.6 53.7773 215.852 53.9847C216.103 54.1911 216.238 54.4733 216.256 54.8323H215.644C215.63 54.6394 215.552 54.4848 215.411 54.3677C215.27 54.2506 215.081 54.193 214.842 54.193C214.622 54.193 214.447 54.24 214.317 54.3341C214.187 54.4282 214.121 54.552 214.121 54.7037C214.121 54.8256 214.16 54.9255 214.239 55.0032C214.317 55.0819 214.417 55.1443 214.535 55.1914C214.654 55.2384 214.819 55.2912 215.03 55.3498C215.295 55.4218 215.51 55.4919 215.676 55.5619C215.842 55.6311 215.985 55.7357 216.103 55.8749C216.222 56.0141 216.285 56.1955 216.289 56.4202C216.289 56.6227 216.232 56.8042 216.12 56.9664C216.007 57.1277 215.849 57.2544 215.645 57.3466C215.441 57.4387 215.207 57.4848 214.942 57.4848V57.4877ZM225.076 52.7338L223.715 57.4272H223.029L221.938 53.6496L220.807 57.4272L220.128 57.4339L218.814 52.7347H219.468L220.492 56.7139L221.622 52.7347H222.31L223.387 56.7005L224.417 52.7347H225.076L225.076 52.7338ZM226.295 53.1379C226.178 53.1379 226.08 53.0976 225.998 53.017C225.917 52.9363 225.877 52.8375 225.877 52.7203C225.877 52.6032 225.917 52.5053 225.998 52.4237C226.079 52.3431 226.178 52.3027 226.295 52.3027C226.407 52.3027 226.502 52.3431 226.581 52.4237C226.659 52.5043 226.698 52.6032 226.698 52.7203C226.698 52.8375 226.659 52.9363 226.581 53.017C226.502 53.0976 226.407 53.1379 226.295 53.1379ZM226.59 53.737V57.4272H225.978V53.737H226.59ZM228.611 54.2419V56.4163C228.611 56.5959 228.65 56.7226 228.725 56.7965C228.802 56.8704 228.934 56.9079 229.123 56.9079H229.574V57.4263H229.022C228.681 57.4263 228.425 57.3475 228.254 57.1911C228.083 57.0336 227.998 56.7754 227.998 56.4163V54.2419H227.52V53.737H227.998V52.8077H228.61V53.737H229.573V54.2419H228.61H228.611ZM232.376 53.6698C232.655 53.6698 232.906 53.7293 233.13 53.8483C233.355 53.9674 233.53 54.1459 233.659 54.384C233.787 54.6221 233.851 54.9111 233.851 55.2528V57.4272H233.245V55.3402C233.245 54.9725 233.153 54.6903 232.969 54.4954C232.785 54.2995 232.533 54.2026 232.215 54.2026C231.892 54.2026 231.634 54.3034 231.443 54.505C231.253 54.7066 231.157 55.0013 231.157 55.3872V57.4272H230.545V52.4448H231.157V54.2631C231.278 54.0749 231.446 53.929 231.659 53.8253C231.872 53.7226 232.111 53.6707 232.376 53.6707V53.6698ZM236.693 57.4877C236.348 57.4877 236.035 57.409 235.754 57.2525C235.473 57.0951 235.253 56.8723 235.094 56.5824C234.934 56.2925 234.855 55.9575 234.855 55.5763C234.855 55.1991 234.937 54.8659 235.101 54.576C235.265 54.2871 235.489 54.0643 235.771 53.9098C236.053 53.7552 236.37 53.6775 236.72 53.6775C237.071 53.6775 237.387 53.7552 237.67 53.9098C237.953 54.0643 238.177 54.2851 238.34 54.5731C238.503 54.8602 238.586 55.1943 238.586 55.5763C238.586 55.9575 238.501 56.2935 238.333 56.5824C238.165 56.8723 237.937 57.0951 237.65 57.2525C237.363 57.409 237.044 57.4877 236.693 57.4877ZM236.693 56.9491C236.913 56.9491 237.12 56.8973 237.313 56.7946C237.506 56.6909 237.661 56.5363 237.78 56.3299C237.899 56.1235 237.959 55.872 237.959 55.5763C237.959 55.2797 237.9 55.0291 237.784 54.8227C237.668 54.6163 237.515 54.4627 237.326 54.361C237.138 54.2602 236.933 54.2103 236.714 54.2103C236.489 54.2103 236.284 54.2602 236.097 54.361C235.911 54.4627 235.761 54.6163 235.649 54.8227C235.537 55.0291 235.481 55.2807 235.481 55.5763C235.481 55.8768 235.536 56.1303 235.646 56.3376C235.757 56.544 235.903 56.6976 236.087 56.7984C236.271 56.8992 236.473 56.9501 236.692 56.9501L236.693 56.9491ZM242.895 53.737V57.4272H242.283V56.8819C242.165 57.0701 242.003 57.2179 241.794 57.3226C241.586 57.4282 241.355 57.481 241.104 57.481C240.817 57.481 240.558 57.4215 240.329 57.3034C240.101 57.1843 239.92 57.0058 239.787 56.7677C239.654 56.5296 239.588 56.2407 239.588 55.8989V53.737H240.194V55.8173C240.194 56.1811 240.286 56.4605 240.469 56.6554C240.653 56.8512 240.905 56.9482 241.223 56.9482C241.55 56.9482 241.808 56.8464 241.997 56.6448C242.186 56.4432 242.28 56.1485 242.28 55.7626V53.736H242.892L242.895 53.737ZM244.909 54.2419V56.4163C244.909 56.5959 244.948 56.7226 245.023 56.7965C245.1 56.8704 245.232 56.9079 245.421 56.9079H245.872V57.4263H245.32C244.978 57.4263 244.723 57.3475 244.552 57.1911C244.381 57.0336 244.296 56.7754 244.296 56.4163V54.2419H243.818V53.737H244.296V52.8077H244.908V53.737H245.871V54.2419H244.908H244.909ZM249.483 56.928H251.125V57.4263H248.869V52.7328H249.483V56.9271V56.928ZM252.325 53.1379C252.208 53.1379 252.11 53.0976 252.028 53.017C251.948 52.9363 251.908 52.8375 251.908 52.7203C251.908 52.6032 251.948 52.5053 252.028 52.4237C252.109 52.3431 252.208 52.3027 252.325 52.3027C252.437 52.3027 252.532 52.3431 252.611 52.4237C252.689 52.5043 252.729 52.6032 252.729 52.7203C252.729 52.8375 252.69 52.9363 252.611 53.017C252.532 53.0976 252.437 53.1379 252.325 53.1379ZM252.621 53.737V57.4272H252.008V53.737H252.621ZM258.332 53.6698C258.619 53.6698 258.875 53.7293 259.099 53.8483C259.324 53.9674 259.501 54.1459 259.631 54.384C259.76 54.6221 259.827 54.9111 259.827 55.2528V57.4272H259.221V55.3402C259.221 54.9725 259.131 54.6903 258.948 54.4954C258.766 54.2995 258.521 54.2026 258.211 54.2026C257.892 54.2026 257.639 54.3043 257.45 54.5088C257.261 54.7133 257.167 55.008 257.167 55.3939V57.4272H256.562V55.3402C256.562 54.9725 256.471 54.6903 256.289 54.4954C256.108 54.2995 255.862 54.2026 255.552 54.2026C255.233 54.2026 254.98 54.3043 254.79 54.5088C254.602 54.7133 254.508 55.008 254.508 55.3939V57.4272H253.896V53.737H254.508V54.2688C254.629 54.0759 254.792 53.9271 254.996 53.8243C255.2 53.7216 255.426 53.6698 255.673 53.6698C255.982 53.6698 256.256 53.7389 256.494 53.8781C256.732 54.0173 256.909 54.2218 257.026 54.4915C257.129 54.2314 257.3 54.0298 257.538 53.8858C257.776 53.7418 258.041 53.6707 258.333 53.6707L258.332 53.6698ZM261.376 53.1379C261.259 53.1379 261.161 53.0976 261.079 53.017C260.999 52.9363 260.958 52.8375 260.958 52.7203C260.958 52.6032 260.999 52.5053 261.079 52.4237C261.16 52.3431 261.259 52.3027 261.376 52.3027C261.488 52.3027 261.583 52.3431 261.662 52.4237C261.741 52.5043 261.78 52.6032 261.78 52.7203C261.78 52.8375 261.741 52.9363 261.662 53.017C261.583 53.0976 261.488 53.1379 261.376 53.1379ZM261.673 53.737V57.4272H261.059V53.737H261.673ZM263.693 54.2419V56.4163C263.693 56.5959 263.732 56.7226 263.808 56.7965C263.884 56.8704 264.016 56.9079 264.205 56.9079H264.656V57.4263H264.104C263.763 57.4263 263.507 57.3475 263.336 57.1911C263.165 57.0336 263.08 56.7754 263.08 56.4163V54.2419H262.602V53.737H263.08V52.8077H263.693V53.737H264.656V54.2419H263.693ZM266.932 57.4877C266.65 57.4877 266.396 57.4397 266.171 57.3427C265.947 57.2467 265.769 57.1114 265.639 56.9386C265.509 56.7658 265.437 56.5671 265.423 56.3434H266.056C266.074 56.5267 266.161 56.6775 266.315 56.7946C266.47 56.9107 266.673 56.9693 266.925 56.9693C267.158 56.9693 267.342 56.9175 267.477 56.8138C267.611 56.7111 267.678 56.5805 267.678 56.4231C267.678 56.2618 267.606 56.1418 267.463 56.0631C267.319 55.9843 267.098 55.9066 266.797 55.8298C266.524 55.7587 266.3 55.6848 266.127 55.6109C265.954 55.537 265.806 55.4266 265.683 55.2807C265.56 55.1347 265.497 54.9427 265.497 54.7047C265.497 54.5165 265.554 54.3437 265.666 54.1863C265.779 54.0288 265.938 53.905 266.144 53.8128C266.351 53.7207 266.586 53.6746 266.851 53.6746C267.26 53.6746 267.589 53.7773 267.841 53.9847C268.092 54.1911 268.227 54.4733 268.244 54.8323H267.631C267.618 54.6394 267.54 54.4848 267.399 54.3677C267.258 54.2506 267.068 54.193 266.83 54.193C266.61 54.193 266.435 54.24 266.305 54.3341C266.175 54.4282 266.11 54.552 266.11 54.7037C266.11 54.8256 266.149 54.9255 266.227 55.0032C266.306 55.0819 266.404 55.1443 266.524 55.1914C266.643 55.2384 266.808 55.2912 267.019 55.3498C267.284 55.4218 267.499 55.4919 267.665 55.5619C267.831 55.6311 267.973 55.7357 268.092 55.8749C268.211 56.0141 268.273 56.1955 268.277 56.4202C268.277 56.6227 268.221 56.8042 268.109 56.9664C267.997 57.1277 267.839 57.2544 267.635 57.3466C267.431 57.4387 267.196 57.4848 266.932 57.4848L266.932 57.4877Z" fill="#353849"/>
<path fill-rule="evenodd" clip-rule="evenodd" d="M269.318 56.6804C269.542 56.6804 269.723 56.8619 269.723 57.0855C269.723 57.3092 269.542 57.4907 269.318 57.4907C269.095 57.4907 268.913 57.3092 268.913 57.0855C268.913 56.8619 269.095 56.6804 269.318 56.6804Z" fill="#5790FB"/>
<path fill-rule="evenodd" clip-rule="evenodd" d="M53.9079 37.8796L36.8612 54.9263H33.7757H30.6903L13.6436 37.8796L18.8948 32.6284L33.7757 47.5094L48.6567 32.6284L53.9079 37.8796Z" fill="#353849"/>
<path fill-rule="evenodd" clip-rule="evenodd" d="M53.1875 28.0983L57.4576 23.8263L63.7648 17.52L67.2745 24.5117L66.5641 25.2231L58.4377 33.3485L53.1875 28.0983Z" fill="#578FFC"/>
<path fill-rule="evenodd" clip-rule="evenodd" d="M48.4039 26.5326C49.8266 25.1089 51.2484 23.6833 52.673 22.2596L58.5194 16.4132L58.9802 15.9524L60.883 14.0497C58.6222 13.3806 56.4382 12.5348 54.3473 11.5249L52.0452 13.827L46.5799 19.2923L33.7764 32.0958L26.9834 25.3028L22.4014 29.7812L29.2462 36.626L33.7764 41.0526C38.6935 36.2478 43.5492 31.3931 48.4049 26.5316L48.4039 26.5326Z" fill="#578FFC"/>
<path fill-rule="evenodd" clip-rule="evenodd" d="M14.3644 28.0982L10.0933 23.8272C19.6828 21.2938 27.9762 15.5741 33.7756 7.87008C36.1228 10.9882 38.8789 13.7808 41.9634 16.1693L47.2665 10.8662C43.4572 8.07359 40.2143 4.55329 37.7433 0.509766H33.7756H29.8079C24.2562 9.59521 14.8069 16.0397 3.78613 17.52L0.276367 24.5117L0.987728 25.223L9.11413 33.3494L14.3653 28.0982H14.3644Z" fill="#578FFC"/>
</svg>
