<?xml version="1.0" encoding="UTF-8"?>
<!DOCTYPE svg PUBLIC "-//W3C//DTD SVG 1.1//EN" "http://www.w3.org/Graphics/SVG/1.1/DTD/svg11.dtd">
<!-- Creator: CorelDRAW 2019 (64-Bit) -->
<svg xmlns="http://www.w3.org/2000/svg" xml:space="preserve" width="3.33333in" height="1.23896in" version="1.1" style="shape-rendering:geometricPrecision; text-rendering:geometricPrecision; image-rendering:optimizeQuality; fill-rule:evenodd; clip-rule:evenodd"
viewBox="0 0 3333.33 1238.96"
 xmlns:xlink="http://www.w3.org/1999/xlink">
 <defs>
  <style type="text/css">
   <![CDATA[
    .fil4 {fill:none}
    .fil0 {fill:#353849}
    .fil3 {fill:#578FFC}
    .fil1 {fill:#353849;fill-rule:nonzero}
    .fil2 {fill:#5790FB;fill-rule:nonzero}
   ]]>
  </style>
 </defs>
 <g id="Layer_x0020_1">
  <metadata id="CorelCorpID_0Corel-Layer"/>
  <g id="_2551102651232">
   <polygon class="fil0" points="873.66,714.85 713.67,874.85 684.71,874.85 655.75,874.85 495.76,714.85 545.04,665.57 684.71,805.24 824.38,665.57 "/>
   <path class="fil1" d="M1329.31 536.17l-72.36 184.34 -71.3 -184.34 -92.97 0 113.83 270.97 94.11 0 114.33 -270.97 -85.64 0zm1517.2 -4.03c-36.77,0 -80.56,24.31 -96.19,62.13l0 -58.1 -75.04 0 0 270.97 78.57 0 0 -133.97c0,-49.86 27.2,-73.03 64.97,-73.03 34.76,0 65.65,20.15 65.65,63.96l0 143.04 78.57 0 0 -155.13c0,-82.6 -52.56,-119.87 -116.53,-119.87zm-344.38 0c-82.6,0 -144.55,58.42 -144.55,139.51 0,80.58 46.94,139.51 154.62,139.51 48.86,0 107.02,-25.93 126.11,-97.19l-76.93 -0.09c-10.5,27.72 -29.81,38.23 -58.52,38.23 -20.8,0 -61.98,-10.39 -61.98,-64.65l191.96 0c6.78,-87.39 -36.56,-155.33 -130.72,-155.33zm0.5 59.43c35.26,0 53.46,22.16 59,56.41l-120.78 0c5.54,-34.75 26.02,-56.41 61.78,-56.41zm-240.33 -73.22c0,-26.69 12.59,-39.28 35.76,-39.28 12.08,0 36.51,3.52 45.07,9.57l0.01 -58.87c-11.35,-8.28 -30.48,-12.65 -52.65,-12.65 -67.49,0 -104.76,39.79 -104.76,100.73l0 24.36 -41.8 0 0 60.44 41.8 0 0 204.48 78.57 0 0 -204.48 86.13 0 0 -60.44 -88.14 0 0 -23.85zm-227.8 288.78l78.57 0 0 -270.97 -78.57 0 0 270.97zm-130.38 -275c-36.77,0 -77.63,24.31 -93.26,62.13l0 -58.1 -75.04 0 0 270.97 78.57 0 0 -133.97c0,-49.86 24.27,-73.03 62.04,-73.03 25.32,0 40.91,20.16 40.91,63.96l0 28.12 78.57 0 0 -40.21c0,-82.6 -27.83,-119.87 -91.79,-119.87zm-338.79 0c-82.6,0 -144.55,58.42 -144.55,139.51 0,80.58 46.94,139.51 154.62,139.51 48.86,0 107.02,-25.93 126.11,-97.19l-76.93 -0.09c-10.5,27.72 -29.81,38.23 -58.52,38.23 -20.8,0 -61.98,-10.39 -61.98,-64.65l191.96 0c6.78,-87.39 -36.56,-155.33 -130.72,-155.33zm0.5 59.43c35.26,0 53.46,22.16 59,56.41l-120.78 0c5.54,-34.75 26.02,-56.41 61.78,-56.41z"/>
   <polygon class="fil2" points="2034.5,441.92 2113.08,441.92 2113.08,510.28 2034.5,510.28 "/>
   <polygon class="fil3" points="866.9,623.05 906.99,582.96 966.18,523.77 999.13,589.39 992.45,596.06 916.19,672.33 "/>
   <path class="fil3" d="M822.01 608.35c13.35,-13.37 26.7,-26.74 40.07,-40.11l54.87 -54.87 4.32 -4.32 17.86 -17.86c-21.22,-6.28 -41.72,-14.22 -61.34,-23.7l-21.61 21.61 -51.3 51.3 -120.17 120.17 -63.75 -63.75 -43.01 42.03 64.24 64.24 42.52 41.55c46.15,-45.1 91.72,-90.66 137.3,-136.29z"/>
   <path class="fil3" d="M502.52 623.05l-40.09 -40.09c90,-23.78 167.85,-77.46 222.28,-149.77 22.03,29.26 47.9,55.48 76.85,77.9l49.77 -49.77c-35.76,-26.21 -66.19,-59.25 -89.39,-97.2l-37.24 0 -37.24 0c-52.11,85.27 -140.79,145.76 -244.24,159.66l-32.94 65.62 6.67 6.67 76.27 76.27 49.28 -49.28z"/>
  </g>
  <rect class="fil4" y="-0" width="3333.33" height="1238.96"/>
 </g>
</svg>
